<svg xmlns="http://www.w3.org/2000/svg" viewBox="0 0 500 500"><g id="freepik--Floor--inject-15"><path id="freepik--floor--inject-15" d="M77.67,454c-95.18-54.95-95.18-144,0-199s249.49-54.95,344.66,0,95.18,144,0,199S172.84,509,77.67,454Z" style="fill:#f5f5f5"></path></g><g id="freepik--Graphics--inject-15"><g id="freepik--graphics--inject-15"><path d="M481,154.5c-1.2,5-1.9,9.86-2.81,14.77s-1.79,9.67-2.67,14.5c-1.8,9.8-3.48,19.58-4.74,29.27-.06.42,1.08.16,1.13-.23,1.27-9.75,3-19.59,4.73-29.44,1.72-9.62,4-19.43,4.85-28.87,0-.14-.44-.2-.49,0Z" style="fill:#e0e0e0"></path><path d="M402.58,198.47c12.47,2.2,25.15,4.19,37.59,6.42s24.56,4.52,36.74,6.88c.5.1,1.29-.51.73-.62q-18.12-3.5-36.42-6.81c-12.57-2.24-25.13-4.54-38.15-6.29-.41-.05-.94.34-.49.42Z" style="fill:#e0e0e0"></path><path d="M483.76,156.29a8.33,8.33,0,0,0,.51,1.7,15.81,15.81,0,0,0,.72,1.63c.05.11.23.15.45.1s.39-.18.34-.29c-.27-.53-.53-1.08-.75-1.63s-.38-1.09-.62-1.62c-.06-.15-.68-.12-.65.11Z" style="fill:#e0e0e0"></path><path d="M487.79,156.39c-.73.86-1.36,1.72-2,2.59l-1,1.3-.49.68a5.07,5.07,0,0,0-.45.65c-.11.23.45.35.7.08a12.31,12.31,0,0,0,.9-1.22l.87-1.23c.66-.92,1.3-1.84,1.84-2.76.09-.14-.27-.27-.42-.09Z" style="fill:#e0e0e0"></path><path d="M402.18,201.37c-.24.24-.06.38.06.54s.3.36.45.54c.3.35.59.71.87,1.07s.53.71.78,1.08c.14.18.27.37.39.56s.2.4.58.45a.57.57,0,0,0,.54-.24c.09-.24-.1-.39-.22-.56l-.4-.56c-.26-.36-.55-.71-.84-1.06s-.61-.72-.93-1.08-.51-.73-1.1-.79a.24.24,0,0,0-.18.05Z" style="fill:#e0e0e0"></path><path d="M406.41,201.86c-.09-.13-.41-.09-.65,0a3.3,3.3,0,0,0-.65.42c-.41.32-.81.65-1.19,1-.77.66-1.48,1.33-2.14,2-.32.33.53.35.82,0,.56-.58,1.16-1.16,1.78-1.73.29-.27.6-.53.91-.8l.43-.37.26-.22a.63.63,0,0,1,.32-.15c.15,0,.14-.15.11-.2Z" style="fill:#e0e0e0"></path><path d="M473.41,177.56a32,32,0,0,0-3.08,4c-1.15,1.57-2.34,3.14-3.71,4.7-2.44,2.76-6.55,7-11.55,7.9-4.84.92-7.68-1.7-9.33-3.6a23.53,23.53,0,0,1-3.68-6.41c-1.65-3.84-3-8.15-7.31-10.71a11,11,0,0,0-8.44-1.19,20.65,20.65,0,0,0-9,4.9c-6.39,5.79-9.95,12.93-10.85,18.65,0,.18.59.19.67,0,2-5.9,4.28-12.15,10.57-18.06,3.5-3.29,9-6.06,13.54-4.79a10.86,10.86,0,0,1,5.82,4c2.8,3.65,3.67,8.1,6,11.93,1.88,3,6.18,8.43,14.44,5.13a26.15,26.15,0,0,0,9.26-6.9c2.71-3,5.6-6.47,6.77-9.46,0-.05,0-.12-.12-.05Z" style="fill:#e0e0e0"></path><path d="M455.61,162.05a.48.48,0,0,0-.3.39c-.07.26-.13.53-.18.79-.09.46-.15.91-.23,1.37-.15.93-.29,1.86-.49,2.8-.05.21.57.21.62,0,.18-.91.31-1.81.43-2.72.06-.45.13-.9.2-1.34s.28-1,0-1.24c0,0,0,0-.05,0Z" style="fill:#e0e0e0"></path><path d="M454.25,170.08a.48.48,0,0,0-.3.39c-.07.26-.13.53-.18.79-.09.46-.15.91-.23,1.37-.15.93-.29,1.86-.49,2.8-.05.21.57.21.62,0,.18-.91.31-1.81.43-2.72.06-.45.13-.9.2-1.35s.28-1,0-1.23c0,0,0,0-.05,0Z" style="fill:#e0e0e0"></path><path d="M452.89,178.11a.48.48,0,0,0-.3.39c-.07.26-.13.53-.18.79-.09.46-.15.91-.23,1.37-.15.93-.29,1.86-.49,2.8-.05.2.56.21.62,0,.18-.91.3-1.81.43-2.72.06-.45.13-.9.2-1.35s.28-1,0-1.24a.08.08,0,0,0-.05,0Z" style="fill:#e0e0e0"></path><path d="M451.53,186.14a.48.48,0,0,0-.3.39c-.07.26-.13.53-.18.79-.09.46-.15.91-.23,1.37-.15.93-.29,1.86-.49,2.8-.05.2.56.21.61,0,.19-.91.31-1.81.44-2.72.06-.45.13-.9.2-1.35s.28-1,0-1.24Z" style="fill:#e0e0e0"></path><path d="M450.17,194.17a.48.48,0,0,0-.3.39c-.07.26-.13.53-.18.79-.09.46-.15.91-.23,1.36-.15.94-.29,1.87-.49,2.81-.05.2.56.21.61,0,.19-.91.31-1.82.44-2.72.06-.45.13-.9.2-1.35s.28-1,0-1.24Z" style="fill:#e0e0e0"></path><path d="M448.81,202.2a.48.48,0,0,0-.3.39c-.07.26-.13.53-.18.79-.09.46-.15.91-.23,1.36-.15.94-.3,1.87-.49,2.81-.05.2.56.21.61,0,.19-.91.31-1.82.44-2.72.06-.45.13-.9.2-1.35s.28-1,0-1.24a0,0,0,0,0-.05,0Z" style="fill:#e0e0e0"></path><path d="M422.24,184c.06.11.19.14.37.18l.74.14c.53.1,1.07.18,1.62.27,1.09.17,2.18.34,3.23.56a.56.56,0,0,0,.44-.09c.11-.1.05-.21-.07-.23-1.05-.21-2.13-.37-3.22-.54l-1.61-.25-.94-.15a.7.7,0,0,0-.53,0s0,.07,0,.09Z" style="fill:#e0e0e0"></path><path d="M431.51,185.57c.07.11.19.14.37.18l.74.14c.53.1,1.08.19,1.62.27,1.09.18,2.18.34,3.24.56a.54.54,0,0,0,.43-.09c.11-.1,0-.21-.07-.23-1-.21-2.13-.37-3.22-.54l-1.61-.25-.94-.15a.75.75,0,0,0-.53,0s-.05.07,0,.09Z" style="fill:#e0e0e0"></path><path d="M440.78,187.14c.07.11.19.14.37.18l.74.14c.53.1,1.08.19,1.62.27,1.09.18,2.18.35,3.24.56a.53.53,0,0,0,.43-.09c.11-.1.05-.21-.07-.23-1.05-.21-2.13-.37-3.21-.54l-1.62-.25-.94-.15a.72.72,0,0,0-.52,0c-.05,0-.05.07,0,.09Z" style="fill:#e0e0e0"></path><path d="M450.05,188.71c.07.11.2.14.37.18l.74.14c.53.1,1.08.19,1.62.27,1.09.18,2.19.35,3.24.56a.53.53,0,0,0,.43-.09c.11-.1.05-.21-.07-.23-1.05-.21-2.13-.37-3.21-.54l-1.61-.25-.95-.15a.73.73,0,0,0-.52,0s0,.07,0,.09Z" style="fill:#e0e0e0"></path><path d="M459.32,190.28c.07.11.2.14.37.18l.74.15,1.62.26c1.09.18,2.19.35,3.24.56a.53.53,0,0,0,.43-.09c.11-.1,0-.21-.07-.23-1-.21-2.13-.37-3.21-.54l-1.61-.25c-.32,0-.63-.09-.94-.15a.75.75,0,0,0-.53,0c-.05,0-.05.07,0,.09Z" style="fill:#e0e0e0"></path><path d="M468.59,191.85c.07.12.2.14.37.18l.75.15c.53.1,1.07.18,1.61.27,1.09.17,2.19.34,3.24.55a.56.56,0,0,0,.44-.09c.11-.1,0-.21-.08-.23-1-.2-2.12-.37-3.21-.53l-1.61-.25-.94-.16a.75.75,0,0,0-.53,0c-.05,0-.05.07,0,.09Z" style="fill:#e0e0e0"></path><path d="M422.33,184.11a25.58,25.58,0,0,0,2.63.49c.92.16,1.85.33,2.79.48a1.71,1.71,0,0,0,.76,0c.39-.16.07-.42-.25-.29.08,0,.27,0,.19,0l-.12,0-.38-.06-1.2-.19-3-.5c-.43-.07-.86-.15-1.31-.2-.26,0-.25.23-.12.27Z" style="fill:#e0e0e0"></path><path d="M413.48,182.61c.79.22,1.72.33,2.57.48l2.82.48a2.3,2.3,0,0,0,.72.08c.16,0,.27-.14.25-.23s-.19-.12-.35-.1c.22,0,.14,0,0,0l-.37-.06L418,183l-3-.5c-.45-.07-.89-.15-1.36-.2-.26,0-.25.23-.12.27Z" style="fill:#e0e0e0"></path><path d="M405.37,181.24c.79.22,1.75.34,2.62.49l2.79.47a1.5,1.5,0,0,0,.77.05c.39-.16.07-.42-.26-.28.09,0,.27,0,.19,0h-.12l-.38-.06-1.2-.2-3-.49c-.43-.07-.86-.15-1.3-.2-.27,0-.26.23-.12.27Z" style="fill:#e0e0e0"></path><path d="M448,162.12a1.92,1.92,0,0,0,2.61.6,2,2,0,0,0,1-1.42,1.5,1.5,0,0,0-1.79-2,1.86,1.86,0,0,0-1.27,1,3.69,3.69,0,0,0,0,3.26,3.49,3.49,0,0,0,3.29,2c.27,0,.3-.24.14-.28a3.52,3.52,0,0,1-2.77-4.66,1.91,1.91,0,0,1,.36-.73.58.58,0,0,1,.79-.17,1.23,1.23,0,0,1,.63,1.35c0,.36-.24,1.36-1.15,1.44a1.7,1.7,0,0,1-1.41-.62c-.1-.09-.44,0-.39.13Z" style="fill:#e0e0e0"></path><path d="M454.83,184.79a3.33,3.33,0,0,1,1.54,1.29,2.05,2.05,0,0,1,.34.93.91.91,0,0,1-.4.92.74.74,0,0,1-1-.23c-.13-.13-.67-.56-.29-.8a3.24,3.24,0,0,1,.69-.21,4.58,4.58,0,0,1,.81-.14,3.42,3.42,0,0,1,1.35.11,2.17,2.17,0,0,1,1.52,1.36c.06.19.69.1.63-.14a2.48,2.48,0,0,0-1.9-1.58,4.67,4.67,0,0,0-1.85-.07,7.21,7.21,0,0,0-.9.19,2.71,2.71,0,0,0-.86.34c-.48.37-.1.75.09,1a1.54,1.54,0,0,0,1.16.67,1.56,1.56,0,0,0,1.27-.57,1.3,1.3,0,0,0,.12-1.18,3.4,3.4,0,0,0-2.14-2.1c-.21-.08-.33.18-.18.24Z" style="fill:#e0e0e0"></path><path d="M411.57,176.26a1.18,1.18,0,0,0-1-.26,2.56,2.56,0,0,0-1,.29,2.21,2.21,0,0,0-1.06,1.44.88.88,0,0,0,0,.78.92.92,0,0,0,.72.27,2.35,2.35,0,0,0,1.6-.71,2,2,0,0,0,.63-1.61l-.69.09a2,2,0,0,0,.95,1.88,1.54,1.54,0,0,0,1.24.08c.53-.19.8-.62.74-.88a.27.27,0,0,0-.41,0c-.14.14-.35.58-.67.62a.89.89,0,0,1-.65-.29,2.07,2.07,0,0,1-.51-1.47c0-.21-.71-.16-.69.09a1.7,1.7,0,0,1-.5,1.37c-.24.26-.82.65-1.09.41s-.05-.5,0-.74a2,2,0,0,1,.39-.74,1.3,1.3,0,0,1,.66-.45,1.81,1.81,0,0,1,1.08.07.24.24,0,0,0,.19-.07c.06-.06,0-.1,0-.14Z" style="fill:#e0e0e0"></path></g><g id="freepik--Gears--inject-15"><g id="freepik--Gear--inject-15"><path d="M106.89,184.83a14.83,14.83,0,0,1-2.51-.2.93.93,0,0,1-.78-.92v-2a12.66,12.66,0,0,1-3-1.24l-1.41,1.41A.93.93,0,0,1,98,182a15.38,15.38,0,0,1-3.56-3.55.94.94,0,0,1,.1-1.2L96,175.83a12.84,12.84,0,0,1-1.24-3h-2a.93.93,0,0,1-.92-.77,15.22,15.22,0,0,1,0-5,.94.94,0,0,1,.92-.77h2a13,13,0,0,1,1.24-3l-1.41-1.4a.94.94,0,0,1-.1-1.2A15.23,15.23,0,0,1,98,157.11a.92.92,0,0,1,1.19.11l1.41,1.4a12.16,12.16,0,0,1,3-1.23v-2a.93.93,0,0,1,.78-.92,15.66,15.66,0,0,1,5,0,.93.93,0,0,1,.78.92v2a12.32,12.32,0,0,1,3,1.23l1.4-1.4a.93.93,0,0,1,1.2-.11,15.42,15.42,0,0,1,3.56,3.56.94.94,0,0,1-.11,1.2l-1.4,1.4a13,13,0,0,1,1.24,3h2a.92.92,0,0,1,.91.77,15,15,0,0,1,.21,2.52,15.27,15.27,0,0,1-.21,2.51.93.93,0,0,1-.92.78h-2a12.84,12.84,0,0,1-1.24,3l1.4,1.4a.93.93,0,0,1,.1,1.2,15.19,15.19,0,0,1-3.55,3.56.94.94,0,0,1-1.2-.1l-1.4-1.41a12.84,12.84,0,0,1-3,1.24v2a.93.93,0,0,1-.78.92A14.83,14.83,0,0,1,106.89,184.83Zm-2.27-1.19a15,15,0,0,0,4.54,0v-2.72l.39-.1a11.6,11.6,0,0,0,3.43-1.41l.34-.22,1.92,1.92a13.78,13.78,0,0,0,3.21-3.21L116.53,176l.21-.34a11.22,11.22,0,0,0,1.42-3.43l.1-.39H121a14.57,14.57,0,0,0,.18-2.27,14.19,14.19,0,0,0-.18-2.27h-2.71l-.1-.39a11.32,11.32,0,0,0-1.42-3.43l-.21-.35,1.92-1.91a14,14,0,0,0-3.21-3.21l-1.92,1.92-.34-.22a11.4,11.4,0,0,0-3.43-1.41l-.39-.09v-2.72a14.4,14.4,0,0,0-4.54,0v2.72l-.39.09a11.4,11.4,0,0,0-3.43,1.41l-.34.22L98.54,158a14.21,14.21,0,0,0-3.22,3.21l1.93,1.91-.21.35a11.61,11.61,0,0,0-1.43,3.43l-.09.39H92.81a13.66,13.66,0,0,0,0,4.54h2.71l.09.39A11.5,11.5,0,0,0,97,175.64l.21.34-1.93,1.93a14.17,14.17,0,0,0,3.22,3.2l1.92-1.92.34.22a11.5,11.5,0,0,0,3.43,1.41l.39.1Zm4.62-28.16Zm-4.7,0ZM106.9,177a7.39,7.39,0,0,1-5.26-2.17,7.54,7.54,0,0,1-1.68-8,7.08,7.08,0,0,1,4.15-4.15,7.48,7.48,0,0,1,9.7,9.71,7,7,0,0,1-4.14,4.14A8,8,0,0,1,106.9,177Zm0-13.83a7.08,7.08,0,0,0-2.42.44,6.06,6.06,0,0,0-3.54,3.54,6.47,6.47,0,0,0,8.4,8.4h0a6.06,6.06,0,0,0,3.54-3.54,6.56,6.56,0,0,0-1.44-7A6.39,6.39,0,0,0,106.88,163.14Z" style="fill:#e0e0e0"></path></g><g id="freepik--gear--inject-15"><path d="M150.85,161.54a9.66,9.66,0,0,1-1.72-.14.62.62,0,0,1-.53-.62v-1.37a8.12,8.12,0,0,1-2-.84l-1,1a.62.62,0,0,1-.81.07,10.62,10.62,0,0,1-2.44-2.43.64.64,0,0,1,.07-.82l1-1a8.47,8.47,0,0,1-.85-2h-1.36a.64.64,0,0,1-.63-.53,11.08,11.08,0,0,1-.14-1.72,10.89,10.89,0,0,1,.14-1.72.63.63,0,0,1,.63-.53h1.36a8.47,8.47,0,0,1,.85-2l-1-1a.66.66,0,0,1-.07-.82,10.42,10.42,0,0,1,2.44-2.43.62.62,0,0,1,.81.07l1,1a8.47,8.47,0,0,1,2-.85v-1.36a.63.63,0,0,1,.53-.63,11,11,0,0,1,3.44,0,.63.63,0,0,1,.52.63v1.36a8.54,8.54,0,0,1,2,.85l1-1a.64.64,0,0,1,.82-.07,10.38,10.38,0,0,1,2.43,2.43.64.64,0,0,1-.07.82l-1,1a8.86,8.86,0,0,1,.84,2h1.36a.63.63,0,0,1,.63.53,10.89,10.89,0,0,1,.14,1.72,11.28,11.28,0,0,1-.14,1.72.64.64,0,0,1-.63.53h-1.36a8.86,8.86,0,0,1-.84,2l1,1a.64.64,0,0,1,.07.82,10.57,10.57,0,0,1-2.43,2.43.64.64,0,0,1-.82-.07l-1-1a8.35,8.35,0,0,1-2,.84v1.37a.62.62,0,0,1-.52.62A9.82,9.82,0,0,1,150.85,161.54Zm-1.55-.81a10.07,10.07,0,0,0,3.1,0v-1.86l.27-.07a7.86,7.86,0,0,0,2.34-1l.23-.15,1.32,1.31a9.68,9.68,0,0,0,2.19-2.19l-1.31-1.32.14-.23a7.73,7.73,0,0,0,1-2.34l.07-.27h1.85a10.24,10.24,0,0,0,.13-1.55,9.82,9.82,0,0,0-.13-1.55h-1.85l-.07-.27a7.79,7.79,0,0,0-1-2.35l-.14-.23,1.31-1.31a9.73,9.73,0,0,0-2.19-2.2l-1.32,1.32-.23-.15a8.11,8.11,0,0,0-2.34-1l-.27-.06v-1.86a10.07,10.07,0,0,0-3.1,0v1.86l-.27.06a8.05,8.05,0,0,0-2.35,1l-.23.15-1.31-1.32a9.57,9.57,0,0,0-2.2,2.2l1.32,1.31-.15.23a8.05,8.05,0,0,0-1,2.35l-.06.27h-1.86a10.07,10.07,0,0,0,0,3.1h1.86l.06.27a8,8,0,0,0,1,2.34l.15.23-1.32,1.32a9.53,9.53,0,0,0,2.2,2.19l1.31-1.31.23.15a7.81,7.81,0,0,0,2.35,1l.27.07Zm3.15-19.25Zm-3.21,0Zm1.61,14.69a5,5,0,0,1-3.59-1.48,5.15,5.15,0,0,1-1.15-5.49,4.85,4.85,0,0,1,2.84-2.84,5.11,5.11,0,0,1,6.63,6.64,4.88,4.88,0,0,1-2.83,2.83A5.53,5.53,0,0,1,150.85,156.17Zm0-9.45a4.76,4.76,0,0,0-1.65.3,4.08,4.08,0,0,0-2.42,2.42,4.41,4.41,0,0,0,5.74,5.73h0a4.14,4.14,0,0,0,2.42-2.41,4.48,4.48,0,0,0-1-4.76A4.36,4.36,0,0,0,150.84,146.72Z" style="fill:#e0e0e0"></path></g></g><g id="freepik--gears--inject-15"><g id="freepik--gear--inject-15"><path d="M262.06,179.75a19,19,0,0,1-1.57-2.4,1.05,1.05,0,0,1,.28-1.34l1.8-1.39a14,14,0,0,1-1-3.56l-2.25-.28a1,1,0,0,1-.93-1,17.35,17.35,0,0,1,.71-5.68,1.06,1.06,0,0,1,1.14-.75l2.26.28a14.68,14.68,0,0,1,1.82-3.2L263,158.64a1,1,0,0,1,.05-1.36,17.51,17.51,0,0,1,4.52-3.52,1.05,1.05,0,0,1,1.34.28l1.39,1.79a14.48,14.48,0,0,1,3.55-1l.28-2.25a1.07,1.07,0,0,1,1-.93,17.28,17.28,0,0,1,5.68.71,1.05,1.05,0,0,1,.74,1.15l-.28,2.24a13.89,13.89,0,0,1,3.2,1.83l1.79-1.39a1,1,0,0,1,1.37.05,17.64,17.64,0,0,1,3.52,4.52,1.06,1.06,0,0,1-.29,1.33l-1.79,1.4a14,14,0,0,1,1,3.55l2.24.28a1.05,1.05,0,0,1,.93,1,17.34,17.34,0,0,1-.7,5.68,1.06,1.06,0,0,1-1.15.75l-2.25-.28a14.45,14.45,0,0,1-1.82,3.2l1.39,1.79a1.06,1.06,0,0,1,0,1.37,18.7,18.7,0,0,1-2.12,1.94,17.7,17.7,0,0,1-2.4,1.57,1.07,1.07,0,0,1-1.35-.28l-1.39-1.79a13.93,13.93,0,0,1-3.55,1l-.28,2.25a1,1,0,0,1-1,.93,17.28,17.28,0,0,1-5.68-.71,1.06,1.06,0,0,1-.75-1.15l.28-2.24a14.55,14.55,0,0,1-3.2-1.83l-1.79,1.4a1.06,1.06,0,0,1-1.37,0A17.88,17.88,0,0,1,262.06,179.75Zm-.51-2.88a16.57,16.57,0,0,0,3.17,4.08l2.45-1.9.36.29a13,13,0,0,0,3.67,2.09l.43.16-.39,3.07a16.13,16.13,0,0,0,5.13.63l.39-3.07.45,0a13.11,13.11,0,0,0,4.07-1.12l.42-.19,1.9,2.44a17.32,17.32,0,0,0,2.17-1.43,15.85,15.85,0,0,0,1.91-1.74l-1.9-2.44.29-.36a13.13,13.13,0,0,0,2.09-3.68l.16-.43,3.07.39a16.21,16.21,0,0,0,.64-5.13l-3.07-.38,0-.46a13,13,0,0,0-1.12-4.07l-.2-.42,2.45-1.9a16.34,16.34,0,0,0-3.17-4.08l-2.45,1.91-.35-.29a12.87,12.87,0,0,0-3.67-2.1l-.43-.16.38-3.06a16.14,16.14,0,0,0-5.13-.65l-.38,3.07-.45,0a13.37,13.37,0,0,0-4.08,1.12l-.42.19-1.9-2.44a16.08,16.08,0,0,0-2.16,1.42,15.24,15.24,0,0,0-1.92,1.76l1.9,2.44-.29.35a13,13,0,0,0-2.08,3.68l-.16.43-3.08-.39a16.2,16.2,0,0,0-.63,5.13l3.06.39.05.45a13,13,0,0,0,1.13,4.07l.19.42Zm28.54-15.53Zm-3.28-4.22Zm-17.67,17.14a8.33,8.33,0,0,1-1.73-6.24,8.58,8.58,0,0,1,6-7.12,8,8,0,0,1,6.62.83,8.52,8.52,0,0,1-1.94,15.5,8,8,0,0,1-6.62-.83A9.08,9.08,0,0,1,269.14,174.26Zm12.41-9.68a8,8,0,0,0-2.08-1.87,6.91,6.91,0,0,0-5.66-.71,7.37,7.37,0,0,0-1.68,13.42h0a6.87,6.87,0,0,0,5.66.7A7.42,7.42,0,0,0,283,170,7.25,7.25,0,0,0,281.55,164.58Z" style="fill:#e0e0e0"></path></g><g id="freepik--gear--inject-15"><path d="M305.6,186.75a12.3,12.3,0,0,1-1.08-1.65.71.71,0,0,1,.2-.91l1.22-.95a10,10,0,0,1-.67-2.43l-1.53-.19a.74.74,0,0,1-.64-.69,12.13,12.13,0,0,1,.48-3.88.72.72,0,0,1,.79-.51l1.54.19a9.88,9.88,0,0,1,1.24-2.19l-.95-1.22a.71.71,0,0,1,0-.93,12.16,12.16,0,0,1,1.44-1.34,12.57,12.57,0,0,1,1.65-1.07.72.72,0,0,1,.91.2l.95,1.22a9.74,9.74,0,0,1,2.43-.67l.19-1.54a.73.73,0,0,1,.69-.63,11.82,11.82,0,0,1,3.88.49.72.72,0,0,1,.51.78l-.19,1.53a10.09,10.09,0,0,1,2.19,1.25l1.22-1a.73.73,0,0,1,.94,0,12,12,0,0,1,2.4,3.08.73.73,0,0,1-.2.92l-1.22,1a9.62,9.62,0,0,1,.67,2.43l1.53.19a.73.73,0,0,1,.64.69,11.86,11.86,0,0,1-.49,3.88.72.72,0,0,1-.78.51l-1.54-.2a10.12,10.12,0,0,1-1.24,2.2l.95,1.22a.71.71,0,0,1,0,.93,12.14,12.14,0,0,1-1.44,1.33,12.27,12.27,0,0,1-1.65,1.07.71.71,0,0,1-.91-.19l-1-1.22a9.84,9.84,0,0,1-2.43.66l-.19,1.54a.73.73,0,0,1-.69.63,11.53,11.53,0,0,1-3.88-.48.71.71,0,0,1-.51-.78l.19-1.54a9.18,9.18,0,0,1-2.19-1.25l-1.22,1a.73.73,0,0,1-.94,0A11.34,11.34,0,0,1,305.6,186.75Zm-.35-2a11.47,11.47,0,0,0,2.16,2.79l1.68-1.3.24.19a8.72,8.72,0,0,0,2.51,1.43l.29.11-.26,2.1a11,11,0,0,0,3.51.43l.26-2.09.31,0a8.9,8.9,0,0,0,2.78-.76l.29-.13,1.3,1.67a11.5,11.5,0,0,0,1.48-1,10.58,10.58,0,0,0,1.31-1.19l-1.3-1.67.2-.24a9.2,9.2,0,0,0,1.42-2.52l.11-.29,2.1.27a11.32,11.32,0,0,0,.44-3.51l-2.1-.26,0-.31a9,9,0,0,0-.77-2.79l-.13-.28,1.67-1.3a11.32,11.32,0,0,0-2.17-2.79l-1.67,1.3-.24-.2a8.92,8.92,0,0,0-2.51-1.43l-.3-.11.27-2.09a11,11,0,0,0-3.51-.44l-.26,2.1-.31,0a9,9,0,0,0-2.79.77l-.28.13-1.3-1.67a11.08,11.08,0,0,0-1.48,1,9.92,9.92,0,0,0-1.31,1.2l1.3,1.67-.2.24a8.79,8.79,0,0,0-1.42,2.51l-.11.29-2.1-.26a11,11,0,0,0-.44,3.51l2.1.26,0,.31a8.8,8.8,0,0,0,.77,2.78l.13.29Zm19.5-10.62Zm-2.24-2.88ZM310.43,183a5.72,5.72,0,0,1-1.18-4.27,5.88,5.88,0,0,1,4.13-4.87,5.47,5.47,0,0,1,4.53.57A5.82,5.82,0,0,1,316.59,185a5.51,5.51,0,0,1-4.53-.56A6.36,6.36,0,0,1,310.43,183Zm8.48-6.63a5.43,5.43,0,0,0-1.42-1.27,4.68,4.68,0,0,0-3.86-.48,5,5,0,0,0-1.15,9.16h0a4.65,4.65,0,0,0,3.86.49,5.09,5.09,0,0,0,3.6-4.21A5,5,0,0,0,318.91,176.37Z" style="fill:#e0e0e0"></path></g></g><g id="freepik--graphics--inject-15"><path d="M69.61,31.45c-1.12,4.44-1.29,8.75-1.84,13.07s-1.11,8.81-1.65,13.21S65,66.51,64.49,70.9c-.28,2.24-.56,4.47-.83,6.71L63.24,81c-.11.94-.47,2-.08,2.79,0,.08.4.13.5,0a8,8,0,0,0,.63-3.08l.42-3.35c.27-2.24.55-4.47.83-6.71q.79-6.47,1.6-12.94t1.58-12.9c.53-4.42,1.51-9.07,1.41-13.32,0-.14-.47-.17-.52.05Z" style="fill:#e0e0e0"></path><path d="M41.77,37.71c-.6,3.38-.6,6.65-.88,9.95s-.59,6.57-.94,9.87-.72,6.39-1.13,9.6-1.28,6.82-1.34,10c0,.25.79.13.86-.16a73.81,73.81,0,0,0,1.44-9.88c.43-3.37.82-6.72,1.17-10.07s.66-6.58.93-9.86a69.42,69.42,0,0,0,.54-9.58c0-.19-.6-.16-.65.1Z" style="fill:#e0e0e0"></path><path d="M38.22,40.21c6.69,1,13.76,1.63,20.65,2.41S72.72,44.18,79.65,45c.49.06,1.26-.56.71-.62L59.59,42c-7-.77-13.82-1.72-21-2.23-.36,0-.73.37-.37.43Z" style="fill:#e0e0e0"></path><path d="M26.25,71.19c11.14,1.89,9.53,1.47,21.17,2.78,11.48,1.3,23,2.52,34.52,3.78Q92.08,78.85,102.18,80c.47.06,1.26-.53.72-.59-23.09-2.67-35.68-3.72-58.68-6.48-6.74-.81-10.65-1.49-17.5-2.17-.38,0-.89.34-.47.42Z" style="fill:#e0e0e0"></path><path d="M33.39,20.15c1,5.23,3.65,9.92,6.22,14.49A60.18,60.18,0,0,0,49.2,46.9,96.3,96.3,0,0,0,77.73,66.5c6.38,3,13.2,6.07,21.62,7.21.34,0,.64-.25.34-.34-3.2-1-6.62-1.68-9.7-2.74-3.4-1.17-6.62-2.5-9.74-3.89a111.18,111.18,0,0,1-15.78-8.6A81,81,0,0,1,41.19,35.35C38,30.55,36,25.36,34,20c-.06-.16-.6-.12-.56.11Z" style="fill:#e0e0e0"></path><path d="M63.75,36.69a11.34,11.34,0,0,0,2.13-2,9.88,9.88,0,0,0,.8-1.1c.13-.2.24-.39.35-.59s.29-.43.19-.55a.48.48,0,0,0-.61.05,1.68,1.68,0,0,0-.34.56c-.1.18-.21.36-.32.54a10,10,0,0,1-.76,1.06,11.36,11.36,0,0,1-1.93,1.84c-.31.24.2.38.49.17Z" style="fill:#e0e0e0"></path><path d="M62.56,32.3a1.42,1.42,0,0,0,.24.67,4.94,4.94,0,0,0,.35.64,6.21,6.21,0,0,0,.91,1.08c.15.15.3.41.66.39a.65.65,0,0,0,.49-.23c.11-.15,0-.24-.12-.32a7.72,7.72,0,0,1-1-1c-.16-.21-.32-.42-.46-.64a3.36,3.36,0,0,0-.48-.76c-.13-.11-.62,0-.63.2Z" style="fill:#e0e0e0"></path><path d="M43.39,33.43c-.44.3-.25.64-.16.89s.26.68.4,1a16.18,16.18,0,0,0,1,1.93c.11.19.58.11.85-.13a5.87,5.87,0,0,0,1.24-1.71,4.62,4.62,0,0,0,.84-1.78c0-.33-.93-.12-.95.2a4.36,4.36,0,0,1-.78,1.64,5.38,5.38,0,0,1-1.12,1.57l.86-.13c-.35-.58-.66-1.18-1-1.78s-.48-1.13-.76-1.67a.77.77,0,0,0,0,.15l0-.09c.12-.19-.29-.25-.51-.1Z" style="fill:#e0e0e0"></path><path d="M59.61,62.35a3,3,0,0,0,.68.88c.25.28.49.55.74.81l.75.8.37.4c.13.13.32.26.36.43a2.61,2.61,0,0,1,.17-.28l-.08.06.52-.16H63c-.16,0-.48.09-.51.24.72,0,1,0,1-.27a.61.61,0,0,0-.07-.1l-.2-.21c-.15-.14-.29-.29-.43-.44L62,63.68l-.81-.81a4.34,4.34,0,0,0-.88-.76c-.15-.08-.75,0-.66.24Z" style="fill:#e0e0e0"></path><path d="M62.65,62.36c-1.07.86-2.08,1.74-3.1,2.62-.24.2-.76.57-.41.68a.93.93,0,0,0,.77-.23c.12-.09.23-.19.34-.29l1.52-1.33c.5-.43,1-.86,1.43-1.3.28-.27-.25-.39-.55-.15Z" style="fill:#e0e0e0"></path><path d="M75.07,52.11a13.68,13.68,0,0,0,2.16,3.72c.18.24,1.09-.17.88-.45-.88-1.13-1.58-2.34-2.46-3.47-.11-.14-.65,0-.58.2Z" style="fill:#e0e0e0"></path><path d="M79.79,52.44a8.84,8.84,0,0,0-1,1.44c-.3.43-.63.87-1,1.31s-.68.81-1.06,1.21a8.76,8.76,0,0,1-1.36,1.27c-.31.22-.05.41.28.3-.21,0-.26,0-.14,0h.1a2.13,2.13,0,0,0,.33-.11,2.47,2.47,0,0,0,.46-.31c.25-.21.47-.44.69-.66.47-.47.9-.95,1.3-1.43s.79-1,1.13-1.49c.2-.29.38-.58.56-.87a1.3,1.3,0,0,0,.28-.65c0-.14-.36-.23-.57,0Z" style="fill:#e0e0e0"></path><path d="M82.28,55.78l.67.07.65.07c.4,0,.79.1,1.18.16a.81.81,0,0,0,.58-.2c.14-.14,0-.24-.13-.26h-.09l-.13,0-.31,0-.62-.06c-.25,0-.49-.05-.75-.06h-.85a.47.47,0,0,0-.39.16c-.06.11.06.18.19.19Z" style="fill:#e0e0e0"></path><path d="M82.29,57.31a5.73,5.73,0,0,0,.74.11l.7.08,1.37.13a1,1,0,0,0,.66-.21c.16-.15.12-.31-.07-.32L84.17,57c-.51,0-1-.08-1.58-.07a.65.65,0,0,0-.39.18.13.13,0,0,0,.09.21Z" style="fill:#e0e0e0"></path><path d="M91.7,54.83c-.21-.53-1-.89-2-.7a3.05,3.05,0,0,0-2.12,1.56,1.75,1.75,0,0,0,.09,2.13,2.74,2.74,0,0,0,2.33,1,4.36,4.36,0,0,0,1.88-.57c.47-.31.73-.75.42-1a.52.52,0,0,0-.57.09c-.12.17-.18.42-.39.58a1.48,1.48,0,0,1-.64.22,1.68,1.68,0,0,1-1.14-.09,3.58,3.58,0,0,1-.9-.65,1.19,1.19,0,0,1-.42-.91,2.4,2.4,0,0,1,.29-1,1.94,1.94,0,0,1,.71-.76,1.29,1.29,0,0,1,.84-.12,2.25,2.25,0,0,1,1,.43c.16.11.7,0,.61-.25Z" style="fill:#e0e0e0"></path><path d="M93.67,56.53c.54,0,1.43-.08,1.66.21s-.69.86-1.14,1-.21.36,0,.37c1.15,0,1.91.74,1.72,1.58a.82.82,0,0,1-.93.67c-.58-.13-.65-.58-1.06-.82-.08,0-.36-.08-.46.08-.36.61.39,1.08,1,1.19a2.14,2.14,0,0,0,2-.78,1.23,1.23,0,0,0-.1-1.57,2.44,2.44,0,0,0-1.93-.79c0,.13,0,.25,0,.37.74-.27,1.78-1,1.58-1.49s-1.55-.53-2.47-.34c-.32.06-.12.3.06.29Z" style="fill:#e0e0e0"></path><path d="M69,79.55h0a.39.39,0,0,0,.39,0c.14-.1.09-.2,0-.24a1.46,1.46,0,0,0-.76-.14,2.46,2.46,0,0,0-.73.16,1.76,1.76,0,0,0-.9.74,1.29,1.29,0,0,0,.21,1.56,1.94,1.94,0,0,0,2,.44,1.44,1.44,0,0,0,1.19-1.46,1.37,1.37,0,0,0-.45-.85,1.76,1.76,0,0,0-1.24-.51c-.26,0-.53.24-.37.34s.5.22.7.36a1.49,1.49,0,0,1,.44.5,1.05,1.05,0,0,1,.1.64.79.79,0,0,1-.33.51.67.67,0,0,1-.5.1,1.3,1.3,0,0,1-.61-.24,1.11,1.11,0,0,1-.5-1.11.9.9,0,0,1,.32-.57,1.56,1.56,0,0,1,1.24-.16l.06-.3-.22,0a.11.11,0,0,0-.06.21Z" style="fill:#e0e0e0"></path><path d="M41.3,79.18c-.17-.48-1.13-.54-2-.08a1.83,1.83,0,0,0-1,1.36,1.55,1.55,0,0,0,.54,1.26,2.23,2.23,0,0,0,1.6.63,3,3,0,0,0,2.39-1.08c.2-.29-.53-.24-.76,0a1.66,1.66,0,0,1-2.64-.36,1.1,1.1,0,0,1,0-1.22,1,1,0,0,1,.48-.37,1.15,1.15,0,0,1,.25,0,.83.83,0,0,1,.53.09.37.37,0,0,0,.37,0c.14-.05.23-.14.2-.22Z" style="fill:#e0e0e0"></path><path d="M98,82.53c-.13.26.09.37.25.51s.43.39.66.58l1.42,1.14,1.37,1,.68.52a1.21,1.21,0,0,0,.92.4c.38,0,.59-.39.24-.39h-.13c.12,0,.36.12.35,0s-.08-.09-.12-.13l-.34-.25-.69-.51-1.41-1c-.47-.35-.94-.71-1.42-1.05-.22-.17-.45-.33-.69-.49a1.66,1.66,0,0,0-.83-.4.28.28,0,0,0-.26.1Z" style="fill:#e0e0e0"></path><path d="M103.19,82.05c-.91.77-1.72,1.56-2.68,2.31q-.63.49-1.29,1c-.48.34-1,.66-1.47,1-.17.12-.12.26,0,.3a.78.78,0,0,0,.59-.11,23,23,0,0,0,2.94-2.07,16.63,16.63,0,0,0,2.43-2.26c.18-.22-.28-.34-.53-.13Z" style="fill:#e0e0e0"></path></g><path id="freepik--Molecules--inject-15" d="M194.13,28.82a1.87,1.87,0,0,0-.67.81l-4.25-.91a1.87,1.87,0,0,0-.32-1,1.92,1.92,0,1,0-3.19,2.13,2.14,2.14,0,0,0,.62.58l-1.49,4.45a2.9,2.9,0,0,0-3.27,2l-5.92-1a2.85,2.85,0,0,0-.48-1.68A2.88,2.88,0,0,0,173.68,33l.62-3.29a1.94,1.94,0,0,0,1-.32,1.92,1.92,0,1,0-2.65-.53,1.89,1.89,0,0,0,.84.7l-.61,3.29a2.88,2.88,0,0,0-1.73.48,3.09,3.09,0,0,0-.48.4l-2.83-2a1.91,1.91,0,1,0-3.35.31,1.79,1.79,0,0,0,.45.46L164.23,34a1.9,1.9,0,1,0,1.2.8,2.23,2.23,0,0,0-.46-.46l.72-1.57a1.89,1.89,0,0,0,1.45-.28,1.2,1.2,0,0,0,.21-.17l2.84,2a2.88,2.88,0,0,0,.16,2.94,3.21,3.21,0,0,0,.52.58l-3.8,6a2.85,2.85,0,0,0-2.79.23,2.69,2.69,0,0,0-.59.52l-6.08-3.89a1.91,1.91,0,1,0-3.39.4c0,.06.08.1.12.15l-2.86,3.62a2.89,2.89,0,1,0,1,.9,4.08,4.08,0,0,0-.31-.39L155,41.78a1.91,1.91,0,0,0,1.89-.12,1.8,1.8,0,0,0,.29-.25l6.08,3.89a2.9,2.9,0,0,0,2.28,4.06l.09,4.23a1.81,1.81,0,0,0-.61.26,1.92,1.92,0,1,0,2.66.53,2,2,0,0,0-1.22-.82l-.1-4.22a2.83,2.83,0,0,0,1.13-.45,2.74,2.74,0,0,0,.8-.79l3.12,1.49a1.88,1.88,0,0,0,.27,1.5,1.91,1.91,0,1,0,.53-2.66,1.77,1.77,0,0,0-.44.42l-3.12-1.5a2.86,2.86,0,0,0-.36-2.46,2.45,2.45,0,0,0-.52-.59l3.8-6a2.87,2.87,0,0,0,3.94-1.74l5.93,1a2.84,2.84,0,0,0,.48,1.67,2.88,2.88,0,0,0,1.43,1.12l-.91,4.52a1.85,1.85,0,0,0-1,.31,1.94,1.94,0,1,0,1.84-.15l.91-4.52a2.87,2.87,0,0,0,1.77-.47l.31-.25L189,42.14a1.88,1.88,0,0,0,.1,1.94,1.91,1.91,0,1,0,.53-2.65.39.39,0,0,0-.1.08l-2.75-2.31a2.89,2.89,0,0,0,0-3.13,3,3,0,0,0-1.11-1l1.49-4.46a1.86,1.86,0,0,0,1.26-.3,2,2,0,0,0,.68-.8l4.24.9a2,2,0,0,0,.32,1.05,1.92,1.92,0,1,0,.53-2.66Z" style="fill:#ebebeb"></path><path id="freepik--molecules--inject-15" d="M468,49.79a1.87,1.87,0,0,0-1-.2l-1.27-4.15a1.89,1.89,0,0,0,.77-.79,1.92,1.92,0,0,0-3.41-1.76,2,2,0,0,0-.21.82l-4.61.86a2.9,2.9,0,0,0-3.3-1.91L453,37a2.89,2.89,0,0,0,1.51-3.07l3.18-1.05a1.89,1.89,0,0,0,.76.72,1.91,1.91,0,1,0-.82-2.58,1.87,1.87,0,0,0-.2,1.08l-3.18,1A2.86,2.86,0,0,0,453,31.87a2.6,2.6,0,0,0-.58-.23l.41-3.47a1.91,1.91,0,1,0-1.89-2.78,2,2,0,0,0-.19.62l-1.72.14a1.93,1.93,0,0,0-.95-1.14,1.91,1.91,0,1,0,.82,2.58,2,2,0,0,0,.19-.62l1.72-.14a1.88,1.88,0,0,0,1,1.14,1.3,1.3,0,0,0,.25.1l-.41,3.47a2.89,2.89,0,0,0-2.49,1.57,2.84,2.84,0,0,0-.26.74l-7.06-.44a2.83,2.83,0,0,0-2.28-2.59l.45-7.21a1.9,1.9,0,0,0,1.41-1,1.92,1.92,0,0,0-3.41-1.76l-.06.18-4.56-.75a2.88,2.88,0,1,0-.32,1.27,2.62,2.62,0,0,0,.19-.46l4.55.75a1.93,1.93,0,0,0,1,1.6,2.09,2.09,0,0,0,.35.13l-.45,7.2a2.88,2.88,0,0,0-2.45,4l-3.66,2.13a1.72,1.72,0,0,0-.52-.4,1.92,1.92,0,1,0,.94,1.11l3.65-2.13a2.85,2.85,0,0,0,2,1.09l.2,3.45a1.91,1.91,0,1,0,1.4.14,2.08,2.08,0,0,0-.58-.19l-.2-3.45a2.88,2.88,0,0,0,2-1.5,2.62,2.62,0,0,0,.26-.74l7.06.44A2.88,2.88,0,0,0,450.32,37a2.85,2.85,0,0,0,1.89.26l2,5.67a2.91,2.91,0,0,0-1.52,3l-4.39,1.39a2,2,0,0,0-.78-.75,1.93,1.93,0,1,0,1,1.53l4.39-1.38a2.89,2.89,0,0,0,1.28,1.31l.37.16-.69,3.52a1.89,1.89,0,0,0-1.66,1,1.92,1.92,0,1,0,2.58-.82l-.12,0,.69-3.52a2.91,2.91,0,0,0,2.72-1.56,2.86,2.86,0,0,0,.32-1.44l4.62-.86a1.93,1.93,0,0,0,.87,1,1.9,1.9,0,0,0,1,.2l1.26,4.15a1.93,1.93,0,0,0-.76.79,1.91,1.91,0,1,0,2.58-.83Z" style="fill:#ebebeb"></path><path id="freepik--molecules--inject-15" d="M230.2,136a2.3,2.3,0,0,0-2.8-1.63,2.12,2.12,0,0,0-.77.37l-3-2.66a2.3,2.3,0,0,0,.22-1.71,2.32,2.32,0,0,0-.52-.95l2.68-3.72a2.26,2.26,0,0,0,1.5.13,2.29,2.29,0,1,0-2.8-1.63,2.17,2.17,0,0,0,.52.94l-2.68,3.72a2.26,2.26,0,0,0-1.5-.13,2.3,2.3,0,0,0-1.56,1.42l-9-1.3a3.32,3.32,0,0,0-.11-.88,3.46,3.46,0,0,0-1.37-2l2.92-5.83a2.24,2.24,0,0,0,1.15,0,2.29,2.29,0,1,0-2.8-1.63,2.23,2.23,0,0,0,.78,1.19l-2.92,5.83a3.39,3.39,0,0,0-1.95-.07l-4.43-10.78a2.29,2.29,0,1,0-3.51-1.29l-5.71,2.89a2.27,2.27,0,1,0,.45.86l5.7-2.89a2.27,2.27,0,0,0,2.17.8l4.43,10.77a3.46,3.46,0,0,0,2.63,6.33,2.74,2.74,0,0,0,.48-.17l3.39,5.6a2.27,2.27,0,1,0,1-.56l-.16.06-3.38-5.6a3.49,3.49,0,0,0,1.13-1.71l9,1.3a2,2,0,0,0,.07.42,2.29,2.29,0,0,0,2.8,1.64,2.44,2.44,0,0,0,.76-.37l3,2.66a2.29,2.29,0,1,0,4.21.54Z" style="fill:#ebebeb"></path><g id="freepik--molecules--inject-15"><path d="M45.57,190.11,40,183.23,43,175.17l.08,0,8.6-1.39.17.2,5.44,6.67-3.06,8.07h-.09Zm-5-6.76,5.12,6.27,8.06-1.3,3-7.8-5.12-6.28-8.07,1.31Z" style="fill:#e0e0e0"></path><path d="M59.43,194.84l-5.12-6.28,3-7.79,8.07-1.31,0,.07c0-.09,0-.18,0-.27l.06-.23,0-.05-8.6,1.39h-.08l-3.07,8.07,5.45,6.67.16.2" style="fill:#e0e0e0"></path><path d="M47.92,204.62l-5.61-6.88,3.07-8.06.08,0,8.61-1.39,5.6,6.87-3.06,8.07h-.09Zm-5-6.76L48,204.13l8.07-1.3,3-7.8L54,188.75l-8.07,1.31Z" style="fill:#e0e0e0"></path><path d="M36.54,213.9,30.93,207,34,199h.09l8.6-1.39,5.61,6.87-3.07,8.07h-.08Zm-5-6.76,5.12,6.28,8.07-1.31,3-7.79L42.56,198l-8.07,1.31Z" style="fill:#e0e0e0"></path><path d="M44.46,212.62l0-.06a2.45,2.45,0,0,1,.42-.43l.09-.06-8.57,1.39h-.09l-3.06,8.07,5.6,6.86.18-.45v0H39l-5.11-6.28,3-7.8Z" style="fill:#e0e0e0"></path><path d="M31.29,206.85h-.1c0,.16,0,.31,0,.47h0l5.12,6.28-3,7.79-8.07,1.31-.08-.1a1.5,1.5,0,0,1-.09.42s0,0,0,.05l.09.11,8.6-1.39h.08l3.07-8.07Z" style="fill:#e0e0e0"></path><path d="M56.32,188.13a2.35,2.35,0,1,1-2.69-1.94A2.34,2.34,0,0,1,56.32,188.13Z" style="fill:#f0f0f0"></path><path d="M59.33,180.2a2.34,2.34,0,1,1-2.69-1.94A2.34,2.34,0,0,1,59.33,180.2Z" style="fill:#f0f0f0"></path><path d="M66.42,179.05a1,1,0,1,1-2,.33,1.05,1.05,0,0,1,.86-1.19A1,1,0,0,1,66.42,179.05Z" style="fill:#f0f0f0"></path><path d="M50.3,204a2.35,2.35,0,1,1-2.69-1.94A2.36,2.36,0,0,1,50.3,204Z" style="fill:#f0f0f0"></path><path d="M38.91,213.29a2.35,2.35,0,1,1-2.69-1.94A2.34,2.34,0,0,1,38.91,213.29Z" style="fill:#f0f0f0"></path><path d="M33.55,206.71a2.35,2.35,0,1,1-2.69-1.94A2.36,2.36,0,0,1,33.55,206.71Z" style="fill:#f0f0f0"></path><path d="M44.3,175.19a1,1,0,1,1-1.19-.86A1,1,0,0,1,44.3,175.19Z" style="fill:#f0f0f0"></path><path d="M52.68,173.83a1,1,0,1,1-1.19-.85A1,1,0,0,1,52.68,173.83Z" style="fill:#f0f0f0"></path><path d="M41.29,183.12a1,1,0,0,1-.86,1.19,1,1,0,1,1-.33-2A1,1,0,0,1,41.29,183.12Z" style="fill:#f0f0f0"></path><path d="M46.65,189.7a1,1,0,1,1-1.19-.86A1,1,0,0,1,46.65,189.7Z" style="fill:#f0f0f0"></path><path d="M60.39,194.92a1,1,0,1,1-1.18-.86A1,1,0,0,1,60.39,194.92Z" style="fill:#f0f0f0"></path><path d="M57.38,202.85a1,1,0,0,1-.86,1.19,1,1,0,1,1,.86-1.19Z" style="fill:#f0f0f0"></path><path d="M43.64,197.63a1,1,0,0,1-.86,1.19,1,1,0,1,1-.33-2A1,1,0,0,1,43.64,197.63Z" style="fill:#f0f0f0"></path><path d="M35.27,199a1,1,0,0,1-.86,1.19,1,1,0,0,1-.33-2.05A1,1,0,0,1,35.27,199Z" style="fill:#f0f0f0"></path><path d="M46,212.14a1,1,0,1,1-1.18-.86A1,1,0,0,1,46,212.14Z" style="fill:#f0f0f0"></path><path d="M40,228a1,1,0,0,1-2,.33,1,1,0,0,1,2-.33Z" style="fill:#f0f0f0"></path><path d="M26.23,222.79a1,1,0,1,1-1.19-.86A1,1,0,0,1,26.23,222.79Z" style="fill:#f0f0f0"></path><path d="M34.61,221.43a1,1,0,1,1-1.19-.86A1.05,1.05,0,0,1,34.61,221.43Z" style="fill:#f0f0f0"></path></g><g id="freepik--molecules--inject-15"><path d="M225.87,62.39l3.18,8.44-5.56,6.78h-.09l-8.74-1.44-.1-.25-3.08-8.19L217,60.94h.09Zm2.63,8.13-2.9-7.7-8.2-1.35L212,68l2.9,7.7,8.19,1.35Z" style="fill:#e0e0e0"></path><path d="M214.05,53.35l2.9,7.7-5.38,6.56-8.19-1.35,0-.09c0,.08-.08.17-.13.25l-.13.2,0,.06,8.74,1.44.08,0,5.57-6.78-3.09-8.19-.1-.25" style="fill:#e0e0e0"></path><path d="M228.3,47.65l3.18,8.44-5.57,6.78-.08,0-8.74-1.43L213.91,53l5.56-6.79.09,0Zm2.63,8.13-2.9-7.7-8.2-1.35-5.37,6.56,2.9,7.7,8.19,1.35Z" style="fill:#e0e0e0"></path><path d="M242.27,42.38l3.18,8.44-5.56,6.78h-.08l-8.74-1.44-3.18-8.44,5.56-6.78.09,0Zm2.64,8.14L242,42.81l-8.2-1.35L228.43,48l2.91,7.7,8.19,1.35Z" style="fill:#e0e0e0"></path><path d="M234.22,41.06s0,0-.05,0a2.51,2.51,0,0,1-.54.28l-.11,0,8.71,1.43h.09l5.56-6.78-3.17-8.42-.33.38,0,0h.07l2.9,7.71L242,42.33Z" style="fill:#e0e0e0"></path><path d="M245.05,50.88l.1,0a3.34,3.34,0,0,1,.17-.44h0l-2.9-7.71,5.38-6.55L256,37.54l0,.13a1.1,1.1,0,0,1,.23-.37s0,0,.05,0l-.06-.13-8.74-1.44-.08,0-5.56,6.79Z" style="fill:#e0e0e0"></path><path d="M214.87,60.81a2.38,2.38,0,1,1,2,2.74A2.39,2.39,0,0,1,214.87,60.81Z" style="fill:#f0f0f0"></path><path d="M209.4,67.49a2.38,2.38,0,1,1,4.7.77,2.38,2.38,0,0,1-4.7-.77Z" style="fill:#f0f0f0"></path><path d="M225.81,47.48a2.38,2.38,0,1,1,2,2.74A2.39,2.39,0,0,1,225.81,47.48Z" style="fill:#f0f0f0"></path><path d="M239.79,42.21a2.38,2.38,0,1,1,2,2.74A2.37,2.37,0,0,1,239.79,42.21Z" style="fill:#f0f0f0"></path><path d="M242.83,50.28a2.38,2.38,0,1,1,2,2.74A2.37,2.37,0,0,1,242.83,50.28Z" style="fill:#f0f0f0"></path><path d="M222.27,77.17a1,1,0,1,1,2.07.35,1,1,0,1,1-2.07-.35Z" style="fill:#f0f0f0"></path><path d="M213.75,75.77A1.07,1.07,0,0,1,215,74.9a1.05,1.05,0,0,1,.86,1.21,1,1,0,0,1-1.21.87A1.05,1.05,0,0,1,213.75,75.77Z" style="fill:#f0f0f0"></path><path d="M227.73,70.51a1.06,1.06,0,0,1,1.22-.87,1,1,0,0,1,.86,1.21,1.05,1.05,0,0,1-1.21.87A1.07,1.07,0,0,1,227.73,70.51Z" style="fill:#f0f0f0"></path><path d="M224.7,62.43a1,1,0,1,1,2.07.35,1,1,0,1,1-2.07-.35Z" style="fill:#f0f0f0"></path><path d="M202.2,66.3a1.07,1.07,0,0,1,1.21-.87,1.05,1.05,0,1,1-1.21.87Z" style="fill:#f0f0f0"></path><path d="M213.14,53a1.07,1.07,0,0,1,1.21-.87,1.05,1.05,0,1,1-1.21.87Z" style="fill:#f0f0f0"></path><path d="M218.61,46.29a1.07,1.07,0,0,1,1.21-.87,1.05,1.05,0,1,1-1.21.87Z" style="fill:#f0f0f0"></path><path d="M230.16,55.76a1.06,1.06,0,0,1,1.22-.86A1,1,0,0,1,231,57,1.05,1.05,0,0,1,230.16,55.76Z" style="fill:#f0f0f0"></path><path d="M238.67,57.17a1.05,1.05,0,1,1,.87,1.21A1.07,1.07,0,0,1,238.67,57.17Z" style="fill:#f0f0f0"></path><path d="M232.59,41a1.05,1.05,0,0,1,2.08.35,1.05,1.05,0,1,1-2.08-.35Z" style="fill:#f0f0f0"></path><path d="M243.53,27.69a1,1,0,0,1,1.21-.87,1.05,1.05,0,0,1,.87,1.21,1.07,1.07,0,0,1-1.21.87A1.05,1.05,0,0,1,243.53,27.69Z" style="fill:#f0f0f0"></path><path d="M255.08,37.16a1.05,1.05,0,0,1,1.21-.87,1.05,1.05,0,0,1-.34,2.08A1.05,1.05,0,0,1,255.08,37.16Z" style="fill:#f0f0f0"></path><path d="M246.57,35.76a1,1,0,0,1,1.21-.87,1.05,1.05,0,1,1-1.21.87Z" style="fill:#f0f0f0"></path></g><path id="freepik--Puzzle--inject-15" d="M56.77,152.18a.52.52,0,0,1-.37,0s-4.58-1.57-7-2.48c-2.08-.79-3.78-1.6-3.49-3.57a3.28,3.28,0,0,1,1.41-1.92,5.77,5.77,0,0,0,2-2.55c.81-2.3-1.43-4.17-3.13-4.87s-4.61-.94-5.66,1.27a5.79,5.79,0,0,0-.38,3.2,3.3,3.3,0,0,1-.34,2.36c-1.18,1.6-3,1-5,.09-2.36-1.05-6.68-3.13-6.72-3.15a.53.53,0,0,1-.29-.35.56.56,0,0,1,.11-.45s1.37-1.69,3.85-5.51c3-4.64,1.53-5.74.44-6.55-.4-.29-.87-.25-1.68-.15a6.08,6.08,0,0,1-3.19-.27c-1.71-.71-3-2.89-1.7-6a5.42,5.42,0,0,1,2.5-2.94A3.54,3.54,0,0,1,31,118.2a6,6,0,0,1,2.45,2c.51.64.82,1,1.3,1.07,1.35.2,3.19.46,4.3-5,.91-4.46,1.12-6.61,1.12-6.63a.53.53,0,0,1,.24-.39.51.51,0,0,1,.45,0s4.58,1.56,7,2.48c2.08.78,3.78,1.59,3.49,3.56A3.34,3.34,0,0,1,50,117.24a5.68,5.68,0,0,0-2,2.54c-.81,2.32,1.08,4,3.13,4.88s4.61.94,5.66-1.27a5.79,5.79,0,0,0,.38-3.2,3.3,3.3,0,0,1,.34-2.36c1.18-1.61,3-1,5-.09,2.37,1,6.69,3.12,6.73,3.14a.53.53,0,0,1,.18.8s-1.37,1.69-3.86,5.51c-3,4.65-1.52,5.75-.44,6.55.4.3.88.26,1.69.16a5.94,5.94,0,0,1,3.18.27c1.72.71,3,2.88,1.71,6S68,144,66.26,143.25a5.83,5.83,0,0,1-2.45-2c-.51-.64-.83-1-1.31-1.07-1.35-.19-3.18-.45-4.29,5a66.83,66.83,0,0,0-1.12,6.64.54.54,0,0,1-.24.38Z" style="fill:#ebebeb"></path><path id="freepik--Idea--inject-15" d="M476.93,93.82a13,13,0,0,0-8.27-6.71,12.52,12.52,0,0,0-3.76-.42,13,13,0,0,0-10.63,19.82,6.78,6.78,0,0,1,.44,6l-.47,1.19a.38.38,0,0,0,.21.48l9,3.53a.38.38,0,0,0,.48-.21l.47-1.2a7,7,0,0,1,4.53-4.14,13,13,0,0,0,8-18.34Zm-18.93,21c2-5.19,3.1-9.25,3.26-12.13h0a5.45,5.45,0,0,0,3.19-.8,5.41,5.41,0,0,0,1.8,2.75l0,0c-1.84,2.22-3.79,5.94-5.84,11.11Zm7.4-18.33c.56-1,1.23-.75,1.45-.66s.89.35.62,1.47a7,7,0,0,1-2.51,3.36A7,7,0,0,1,465.4,96.45Zm3.35,15a7.76,7.76,0,0,0-5,4.57l-.33.86-2.26-.88c2.3-5.82,4.23-9.14,5.77-11a4.48,4.48,0,0,0,3.91.29,2.15,2.15,0,0,0,1.43-1.52,1.22,1.22,0,0,0-.54-1.13,2.56,2.56,0,0,0-2.34-.4,6,6,0,0,0-2.59,1.8l-.07,0a4.83,4.83,0,0,1-1.58-2.6,7.78,7.78,0,0,0,3.05-4,1.85,1.85,0,0,0-3.44-1.35,7.86,7.86,0,0,0-.47,5,4.87,4.87,0,0,1-2.92.83h-.08a6,6,0,0,0-.68-3.08,2.61,2.61,0,0,0-2-1.29,1.22,1.22,0,0,0-1.16.46,2.17,2.17,0,0,0,0,2.09,4.46,4.46,0,0,0,3.07,2.43c-.12,2.41-1,6.15-3.21,12l-2.26-.88.33-.86a7.47,7.47,0,0,0-.5-6.64,12.27,12.27,0,0,1,10-18.71,11.71,11.71,0,0,1,3.54.4,12.14,12.14,0,0,1,7.81,6.33,12.28,12.28,0,0,1,.47,10A12.16,12.16,0,0,1,468.75,111.46Zm-1.32-7a5,5,0,0,1,2.16-1.48,1.82,1.82,0,0,1,1.69.29c.28.2.25.38.25.44,0,.27-.35.66-1,.93A3.74,3.74,0,0,1,467.43,104.46Zm-6.89-2.7a3.72,3.72,0,0,1-2.41-2,1.5,1.5,0,0,1-.09-1.36.48.48,0,0,1,.48-.16,2.11,2.11,0,0,1,.51.12,1.93,1.93,0,0,1,.93.82A5,5,0,0,1,460.54,101.76Zm2.57,16.9-9-3.54a.38.38,0,0,0-.48.21l-1.28,3.28a1.32,1.32,0,0,0,.75,1.71l7.26,2.84a1.31,1.31,0,0,0,1.7-.74l1.29-3.29a.39.39,0,0,0,0-.28A.34.34,0,0,0,463.11,118.66Zm-1.76,3.49a.59.59,0,0,1-.76.33l-7.26-2.84a.59.59,0,0,1-.33-.76l1.15-2.94,8.35,3.26Z" style="fill:#e0e0e0"></path></g><g id="freepik--Plants--inject-15"><g id="freepik--plants--inject-15"><path d="M55.33,363.44a.53.53,0,0,1-.26-.36c-4.15-21-23.82-34.55-32.22-40.32-1.36-.93-2.43-1.67-3.12-2.22a10.45,10.45,0,0,1-4.29-9.37,9,9,0,0,1,5.62-7c7.79-3.46,21.48,5.23,31.15,19.77,13.55,20.39,9.88,36.84,9.84,37a.53.53,0,0,1-.33.37l-5.95,2.21-.21,0A.62.62,0,0,1,55.33,363.44Zm-4-38.95c-9.39-14.12-22.49-22.64-29.82-19.39a7.9,7.9,0,0,0-5,6.2,9.42,9.42,0,0,0,3.9,8.41c.66.53,1.72,1.26,3.06,2.18,8.43,5.78,28.05,19.26,32.53,40.38l5.09-1.89C61.48,358.18,63.66,343,51.32,324.49Z" style="fill:#8247E5"></path><path d="M58.94,362.26H59a.52.52,0,0,0,.48-.57c-2.11-24.86-21.76-47-33.82-50.72a.53.53,0,1,0-.32,1c11.93,3.69,31.08,26.22,33.09,49.8A.54.54,0,0,0,58.94,362.26Z" style="fill:#8247E5"></path><path d="M61.51,361.31a.66.66,0,0,0,.23,0l4-1.68a.52.52,0,0,0,.31-.39c0-.24,4.91-24.7-3.78-56.09-4.42-16-15.54-30.87-26.45-35.4-5.24-2.18-10.15-2-14.6.5-2.52,1.42-4,3.28-4.39,5.53C15.76,280,23,288.3,30.59,297.14c5.33,6.18,10.85,12.58,13.67,18.43a.53.53,0,0,0,.71.25.54.54,0,0,0,.25-.71c-2.88-6-8.45-12.43-13.83-18.66-7.46-8.64-14.5-16.81-13.5-22.53.34-1.95,1.6-3.52,3.86-4.79,4.15-2.34,8.75-2.49,13.68-.44,10.62,4.41,21.49,19,25.83,34.71,8.12,29.36,4.32,52.56,3.82,55.32l-3.75,1.57A.53.53,0,0,0,61,361,.54.54,0,0,0,61.51,361.31Z" style="fill:#8247E5"></path><path d="M61,346.1h0a.53.53,0,0,0,.52-.54c-.85-38.71-25.44-67.24-32.32-71.86a.54.54,0,0,0-.74.15.52.52,0,0,0,.15.73c6.78,4.55,31,32.71,31.85,71A.53.53,0,0,0,61,346.1Z" style="fill:#8247E5"></path></g><g id="freepik--plants--inject-15"><path d="M439.94,334.34l-.21,0-6-1.92a.5.5,0,0,1-.33-.33c0-.14-3.71-14.5,9.85-32.29,9.67-12.7,23.35-20.29,31.14-17.27,3.18,1.24,5.23,3.48,5.62,6.15.43,3-1.17,6-4.28,8.18-.7.48-1.77,1.13-3.13,1.94-8.4,5-28.07,16.83-32.22,35.2a.45.45,0,0,1-.26.31A.46.46,0,0,1,439.94,334.34Zm-5.51-2.73,5.09,1.65c4.49-18.44,24.11-30.2,32.53-35.25,1.34-.81,2.4-1.44,3.07-1.91,2.82-2,4.27-4.69,3.89-7.33-.35-2.38-2.12-4.31-5-5.42-7.34-2.84-20.44,4.6-29.83,16.93C431.85,316.47,434,329.69,434.43,331.61Z" style="fill:#8247E5"></path><path d="M436.56,333.25h-.07a.48.48,0,0,1-.48-.5c2.11-21.71,21.76-41,33.83-44.29a.54.54,0,0,1,.66.31.46.46,0,0,1-.35.58c-11.93,3.21-31.08,22.89-33.09,43.48A.5.5,0,0,1,436.56,333.25Z" style="fill:#8247E5"></path><path d="M434,332.42a.66.66,0,0,1-.23,0l-4-1.46a.48.48,0,0,1-.31-.34c-.05-.21-4.9-21.57,3.78-49,4.42-14,15.54-27,26.45-30.92,5.24-1.89,10.16-1.75,14.61.44,2.51,1.24,4,2.86,4.38,4.83,1.08,5.43-6.12,12.72-13.74,20.43-5.34,5.4-10.86,11-13.68,16.09a.56.56,0,0,1-.71.22.44.44,0,0,1-.24-.62c2.88-5.22,8.44-10.85,13.82-16.29,7.46-7.55,14.5-14.68,13.51-19.67-.34-1.7-1.61-3.07-3.86-4.18-4.15-2-8.76-2.18-13.68-.39-10.63,3.85-21.5,16.6-25.84,30.3-8.12,25.64-4.32,45.89-3.81,48.3l3.74,1.37a.45.45,0,0,1,.29.61A.54.54,0,0,1,434,332.42Z" style="fill:#8247E5"></path><path d="M434.53,319.14h0a.49.49,0,0,1-.52-.47c.85-33.8,25.44-58.7,32.32-62.73a.59.59,0,0,1,.74.12.43.43,0,0,1-.14.64c-6.79,4-31,28.56-31.86,62A.49.49,0,0,1,434.53,319.14Z" style="fill:#8247E5"></path></g></g><g id="freepik--Shadows--inject-15"><ellipse id="freepik--Shadow--inject-15" cx="395.46" cy="353.95" rx="61.31" ry="35.4" style="fill:#e0e0e0"></ellipse><polygon id="freepik--shadow--inject-15" points="350.32 438.38 375.12 424.06 350.32 409.74 381.12 391.95 436.73 424.06 381.12 456.16 350.32 438.38" style="fill:#e0e0e0"></polygon><polygon id="freepik--shadow--inject-15" points="188.95 448.36 331.16 366.26 188.95 284.16 46.75 366.26 188.95 448.36" style="fill:#e0e0e0"></polygon><polygon id="freepik--shadow--inject-15" points="222.55 462.96 302.96 416.53 333.76 434.32 308.96 448.64 333.76 462.96 302.96 480.74 278.15 466.42 253.35 480.74 222.55 462.96" style="fill:#e0e0e0"></polygon></g><g id="freepik--puzzle--inject-15"><g id="freepik--puzzle--inject-15"><polygon points="188.95 438.32 188.95 381.03 164.15 366.71 164.15 395.36 139.34 381.03 139.34 352.39 114.54 338.07 114.54 395.36 188.95 438.32" style="fill:#8247E5"></polygon><polygon points="188.95 438.32 188.95 381.03 164.15 366.71 164.15 395.36 139.34 381.03 139.34 352.39 114.54 338.07 114.54 395.36 188.95 438.32" style="fill:#fff;opacity:0.7000000000000001"></polygon><polygon points="188.95 438.32 213.76 424 213.76 366.71 188.95 381.03 188.95 438.32" style="fill:#8247E5"></polygon><polygon points="188.95 438.32 213.76 424 213.76 366.71 188.95 381.03 188.95 438.32" style="fill:#fff;opacity:0.55"></polygon><polygon points="114.54 395.36 114.54 366.71 89.73 352.39 89.73 381.03 114.54 395.36" style="fill:#8247E5"></polygon><polygon points="114.54 395.36 114.54 366.71 89.73 352.39 89.73 381.03 114.54 395.36" style="opacity:0.15"></polygon><polygon points="89.73 381.03 64.93 366.71 64.93 280.79 114.54 309.43 114.54 366.71 89.73 352.39 89.73 381.03" style="fill:#8247E5"></polygon><polygon points="188.95 381.03 188.95 352.39 164.15 338.07 164.15 366.71 188.95 381.03" style="fill:#8247E5"></polygon><polygon points="188.95 381.03 188.95 352.39 164.15 338.07 164.15 366.71 188.95 381.03" style="opacity:0.30000000000000004"></polygon><polygon points="188.95 352.39 238.56 323.75 238.56 352.39 288.17 323.75 288.17 352.39 213.76 395.35 213.76 366.71 188.95 381.03 188.95 352.39" style="fill:#8247E5"></polygon><polygon points="188.95 352.39 238.56 323.75 238.56 352.39 288.17 323.75 288.17 352.39 213.76 395.35 213.76 366.71 188.95 381.03 188.95 352.39" style="opacity:0.45"></polygon><polygon points="288.17 323.75 312.97 309.43 312.98 366.71 213.76 424 213.76 395.35 288.17 352.39 288.17 323.75" style="fill:#8247E5"></polygon><polygon points="288.17 323.75 312.97 309.43 312.98 366.71 213.76 424 213.76 395.35 288.17 352.39 288.17 323.75" style="fill:#fff;opacity:0.2"></polygon><polygon points="263.37 338.07 263.37 280.79 213.76 309.43 213.76 280.79 188.95 295.11 188.95 352.39 238.56 323.75 238.56 352.39 263.37 338.07" style="fill:#8247E5"></polygon><polygon points="263.37 338.07 263.37 280.79 213.76 309.43 213.76 280.79 188.95 295.11 188.95 352.39 238.56 323.75 238.56 352.39 263.37 338.07" style="opacity:0.30000000000000004"></polygon><polygon points="188.95 295.11 164.15 280.79 164.15 338.07 188.95 352.39 188.95 295.11" style="fill:#8247E5"></polygon><polygon points="188.95 295.11 164.15 280.79 164.15 338.07 188.95 352.39 188.95 295.11" style="opacity:0.15"></polygon><polygon points="213.76 280.79 188.95 295.11 164.15 280.79 188.95 266.47 213.76 280.79" style="fill:#8247E5"></polygon><polygon points="263.37 280.79 238.56 266.47 213.76 280.79 213.76 309.43 263.37 280.79" style="fill:#8247E5"></polygon><polygon points="139.34 352.39 139.34 323.75 164.15 338.07 164.15 309.43 139.34 295.11 139.34 266.47 114.54 252.15 114.54 280.79 89.73 266.47 89.73 295.11 114.54 309.43 114.54 338.07 139.34 352.39" style="fill:#8247E5"></polygon><polygon points="139.34 352.39 139.34 323.75 164.15 338.07 164.15 309.43 139.34 295.11 139.34 266.47 114.54 252.15 114.54 280.79 89.73 266.47 89.73 295.11 114.54 309.43 114.54 338.07 139.34 352.39" style="fill:#fff;opacity:0.2"></polygon><polygon points="139.34 266.47 164.15 252.15 139.34 237.82 114.54 252.15 139.34 266.47" style="fill:#8247E5"></polygon><polygon points="139.34 266.47 164.15 252.15 139.34 237.82 114.54 252.15 139.34 266.47" style="fill:#fff;opacity:0.35000000000000003"></polygon><polygon points="139.34 323.75 164.15 338.07 164.15 395.36 139.34 381.03 139.34 323.75" style="fill:#8247E5"></polygon><polygon points="139.34 323.75 164.15 338.07 164.15 395.36 139.34 381.03 139.34 323.75" style="fill:#fff;opacity:0.45"></polygon><polygon points="288.17 323.75 288.17 237.82 312.97 223.5 312.97 309.43 288.17 323.75" style="fill:#8247E5"></polygon><polygon points="288.17 237.82 263.37 223.5 263.36 309.43 288.17 323.75 288.17 237.82" style="fill:#8247E5"></polygon><polygon points="288.17 237.82 263.37 223.5 263.36 309.43 288.17 323.75 288.17 237.82" style="fill:#fff;opacity:0.15"></polygon><polygon points="312.97 223.5 288.17 209.18 263.37 223.5 288.17 237.82 312.97 223.5" style="fill:#8247E5"></polygon><polygon points="312.97 223.5 288.17 209.18 263.37 223.5 288.17 237.82 312.97 223.5" style="fill:#fff;opacity:0.30000000000000004"></polygon><polygon points="263.37 338.07 288.17 323.75 263.36 309.43 263.37 338.07" style="fill:#8247E5"></polygon><polygon points="263.37 338.07 288.17 323.75 263.36 309.43 263.37 338.07" style="opacity:0.6000000000000001"></polygon><polygon points="139.34 266.47 164.15 280.79 213.76 252.15 164.15 223.5 139.34 237.82 164.15 252.15 139.34 266.47" style="fill:#8247E5"></polygon><polygon points="139.34 266.47 164.15 280.79 213.76 252.15 164.15 223.5 139.34 237.82 164.15 252.15 139.34 266.47" style="opacity:0.15"></polygon><polygon points="139.34 266.47 164.15 280.79 164.15 309.43 139.34 295.11 139.34 266.47" style="fill:#8247E5"></polygon><polygon points="139.34 266.47 164.15 280.79 164.15 309.43 139.34 295.11 139.34 266.47" style="opacity:0.30000000000000004"></polygon><polygon points="213.76 280.79 213.76 252.15 188.95 266.47 213.76 280.79" style="fill:#8247E5"></polygon><polygon points="213.76 280.79 213.76 252.15 188.95 266.47 213.76 280.79" style="opacity:0.45"></polygon><polygon points="213.76 252.15 263.37 223.5 263.37 280.79 238.56 266.47 213.76 280.79 213.76 252.15" style="fill:#8247E5"></polygon><polygon points="213.76 252.15 263.37 223.5 263.37 280.79 238.56 266.47 213.76 280.79 213.76 252.15" style="fill:#fff;opacity:0.55"></polygon><polygon points="263.37 223.5 238.56 209.18 213.75 223.5 188.95 209.18 164.15 223.5 213.76 252.15 263.37 223.5" style="fill:#8247E5"></polygon><polygon points="263.37 223.5 238.56 209.18 213.75 223.5 188.95 209.18 164.15 223.5 213.76 252.15 263.37 223.5" style="fill:#fff;opacity:0.7000000000000001"></polygon><polygon points="288.17 323.75 263.37 223.5 188.95 266.47 213.76 280.79 238.56 266.47 263.37 280.79 263.36 309.43 288.17 323.75" style="opacity:0.1"></polygon><polygon points="263.37 223.5 263.36 309.43 288.17 323.75 263.37 223.5" style="opacity:0.1"></polygon><polygon points="164.15 223.5 114.54 194.86 64.93 223.5 114.54 252.15 164.15 223.5" style="fill:#8247E5"></polygon><polygon points="64.93 223.5 64.93 280.79 89.73 295.11 89.73 266.47 114.54 280.79 114.54 252.15 64.93 223.5" style="fill:#8247E5"></polygon><polygon points="64.93 223.5 64.93 280.79 89.73 295.11 89.73 266.47 114.54 280.79 114.54 252.15 64.93 223.5" style="opacity:0.15"></polygon><polygon points="188.95 209.18 164.15 194.86 139.34 209.18 164.15 223.5 188.95 209.18" style="fill:#8247E5"></polygon><polygon points="188.95 209.18 164.15 194.86 139.34 209.18 164.15 223.5 188.95 209.18" style="opacity:0.45"></polygon><polygon points="188.95 209.18 213.76 194.86 188.95 180.54 213.76 166.22 188.95 151.9 114.54 194.86 139.34 209.18 164.15 194.86 188.95 209.18" style="fill:#8247E5"></polygon><polygon points="188.95 209.18 213.76 194.86 188.95 180.54 213.76 166.22 188.95 151.9 114.54 194.86 139.34 209.18 164.15 194.86 188.95 209.18" style="fill:#fff;opacity:0.45"></polygon><polygon points="238.56 180.54 188.95 209.18 213.75 223.5 238.56 209.18 263.37 223.5 288.17 209.18 238.56 180.54" style="fill:#8247E5"></polygon><polygon points="238.56 180.54 188.95 209.18 213.75 223.5 238.56 209.18 263.37 223.5 288.17 209.18 238.56 180.54" style="opacity:0.15"></polygon><polygon points="213.76 166.22 188.95 180.54 213.76 194.86 238.56 180.54 213.76 166.22" style="fill:#8247E5"></polygon><path d="M263.37,281.55a.76.76,0,0,0,.76-.76V223.5a.76.76,0,0,0-.11-.37l-1.42.81v56.85A.76.76,0,0,0,263.37,281.55Zm49.22,27.22-24.42,14.1-24.42-14.1a.76.76,0,1,0-.77,1.32l23.66,13.66-47.32,27.32V323.75a.76.76,0,0,0-.38-.66.74.74,0,0,0-.76,0L189,351.51v1.63a.73.73,0,0,0,.38-.09l48.47-28v27.32a.75.75,0,0,0,.38.66.74.74,0,0,0,.76,0l48.47-28V352L214.52,394V367.29a.77.77,0,0,0-.37-.66.76.76,0,0,0-.76,0L189,380.16v1.63a.7.7,0,0,0,.37-.09L213,368.58V424a.67.67,0,0,0,.11.37l1.41-.81V395.8l74-42.75a.75.75,0,0,0,.38-.66v-28.2l24-13.88v-1.63A.73.73,0,0,0,312.59,308.77Zm-99.48-27.61a.74.74,0,0,0,.65.39.76.76,0,0,0,.76-.76V252.15a.8.8,0,0,0-.11-.38l-1.42.82v27.76l.77.44Z" style="fill:#8247E5"></path><path d="M263.37,281.55a.76.76,0,0,0,.76-.76V223.5a.76.76,0,0,0-.11-.37l-1.42.81v56.85A.76.76,0,0,0,263.37,281.55Zm49.22,27.22-24.42,14.1-24.42-14.1a.76.76,0,1,0-.77,1.32l23.66,13.66-47.32,27.32V323.75a.76.76,0,0,0-.38-.66.74.74,0,0,0-.76,0L189,351.51v1.63a.73.73,0,0,0,.38-.09l48.47-28v27.32a.75.75,0,0,0,.38.66.74.74,0,0,0,.76,0l48.47-28V352L214.52,394V367.29a.77.77,0,0,0-.37-.66.76.76,0,0,0-.76,0L189,380.16v1.63a.7.7,0,0,0,.37-.09L213,368.58V424a.67.67,0,0,0,.11.37l1.41-.81V395.8l74-42.75a.75.75,0,0,0,.38-.66v-28.2l24-13.88v-1.63A.73.73,0,0,0,312.59,308.77Zm-99.48-27.61a.74.74,0,0,0,.65.39.76.76,0,0,0,.76-.76V252.15a.8.8,0,0,0-.11-.38l-1.42.82v27.76l.77.44Z" style="opacity:0.75"></path><path d="M164.91,366.27V339.39l23.66,13.66a.73.73,0,0,0,.38.09v-1.63l-24-13.88V309.44h0v-28.2l-1.41-.82a.71.71,0,0,0-.12.38v27.32l-23.27-13.44V266.91l-1.42-.82a.8.8,0,0,0-.11.38v28.64a.78.78,0,0,0,.38.66l24.42,14.1v26.88l-23.67-13.66a.74.74,0,0,0-.76,0,.78.78,0,0,0-.38.66v27.32L115.3,337.63v-28.2a.76.76,0,0,0-.38-.66L90.5,294.67V267.79l23.66,13.66a.74.74,0,0,0,.76,0,.76.76,0,0,0,.38-.66v-28.2l-1.41-.82a.7.7,0,0,0-.11.38v27.32L90.11,265.81a.74.74,0,0,0-.76,0,.76.76,0,0,0-.38.66v27.32L65.31,280.13a.73.73,0,0,0-.38-.09v1.63l48.85,28.2v55.52L90.12,351.73a.76.76,0,0,0-.77,0,.78.78,0,0,0-.38.66v28.2l1.42.82a.8.8,0,0,0,.11-.38V353.71l23.28,13.44v27.76l1.41.82a.8.8,0,0,0,.11-.38v-56l23.28,13.44V381a.79.79,0,0,0,.38.67L163.77,396h0a.9.9,0,0,0,.33.09h0a.9.9,0,0,0,.33-.09h0l.05,0a.85.85,0,0,0,.19-.19.35.35,0,0,1,0-.08.79.79,0,0,0,.09-.35V368l23.66,13.66a.73.73,0,0,0,.38.09v-1.64ZM163.39,394l-23.28-13.44v-28.2h0V325.07l23.28,13.44V394Z" style="fill:#8247E5"></path><path d="M164.91,366.27V339.39l23.66,13.66a.73.73,0,0,0,.38.09v-1.63l-24-13.88V309.44h0v-28.2l-1.41-.82a.71.71,0,0,0-.12.38v27.32l-23.27-13.44V266.91l-1.42-.82a.8.8,0,0,0-.11.38v28.64a.78.78,0,0,0,.38.66l24.42,14.1v26.88l-23.67-13.66a.74.74,0,0,0-.76,0,.78.78,0,0,0-.38.66v27.32L115.3,337.63v-28.2a.76.76,0,0,0-.38-.66L90.5,294.67V267.79l23.66,13.66a.74.74,0,0,0,.76,0,.76.76,0,0,0,.38-.66v-28.2l-1.41-.82a.7.7,0,0,0-.11.38v27.32L90.11,265.81a.74.74,0,0,0-.76,0,.76.76,0,0,0-.38.66v27.32L65.31,280.13a.73.73,0,0,0-.38-.09v1.63l48.85,28.2v55.52L90.12,351.73a.76.76,0,0,0-.77,0,.78.78,0,0,0-.38.66v28.2l1.42.82a.8.8,0,0,0,.11-.38V353.71l23.28,13.44v27.76l1.41.82a.8.8,0,0,0,.11-.38v-56l23.28,13.44V381a.79.79,0,0,0,.38.67L163.77,396h0a.9.9,0,0,0,.33.09h0a.9.9,0,0,0,.33-.09h0l.05,0a.85.85,0,0,0,.19-.19.35.35,0,0,1,0-.08.79.79,0,0,0,.09-.35V368l23.66,13.66a.73.73,0,0,0,.38.09v-1.64ZM163.39,394l-23.28-13.44v-28.2h0V325.07l23.28,13.44V394Z" style="opacity:0.65"></path><path d="M287.42,208.75l-24.05,13.87-24.43-14.1a.79.79,0,0,0-.76,0l-24.42,14.1-23.28-13.44,23.66-13.66L239.33,181l-1.53-.89-24,13.88-23.28-13.44,23.66-13.66a.8.8,0,0,0,.27-.28l-1.42-.82-24.42,14.1a.76.76,0,0,0-.38.66.75.75,0,0,0,.38.66l23.66,13.66L189,208.3l-24.42-14.1a.74.74,0,0,0-.76,0l-24.43,14.1-24-13.88-1.41.82a.72.72,0,0,0,.27.28l23.74,13.71,24.72,14.27L139,237.16h0l-24.8,14.33a.66.66,0,0,0-.27.28l1.41.82,24-13.88,23.28,13.44L139,265.81a.8.8,0,0,0-.27.28l1.42.82,24.42-14.1a.76.76,0,0,0,.38-.66.74.74,0,0,0-.38-.66l-23.66-13.66,23.28-13.44,48.08,27.76-48.46,28a.72.72,0,0,0-.27.28l1.41.82,49.22-28.42h0l0,0,.12-.11.1-.11,0,0,0-.09a.88.88,0,0,0,.05-.15.66.66,0,0,0,0-.14.76.76,0,0,0,0-.15.58.58,0,0,0-.05-.14.94.94,0,0,0,0-.09l0,0-.1-.11a.53.53,0,0,0-.12-.1s0,0,0,0l-48.47-28L189,210.06l24.42,14.1a.76.76,0,0,0,.77,0l24.42-14.1L263,224.17h0a1,1,0,0,0,.29.08l.08,0h0l.08,0a1,1,0,0,0,.29-.08h0l24.8-14.33a.73.73,0,0,0,.28-.27ZM164.15,222.62l-23.28-13.44,23.28-13.44,23.28,13.44Z" style="fill:#8247E5"></path><path d="M287.42,208.75l-24.05,13.87-24.43-14.1a.79.79,0,0,0-.76,0l-24.42,14.1-23.28-13.44,23.66-13.66L239.33,181l-1.53-.89-24,13.88-23.28-13.44,23.66-13.66a.8.8,0,0,0,.27-.28l-1.42-.82-24.42,14.1a.76.76,0,0,0-.38.66.75.75,0,0,0,.38.66l23.66,13.66L189,208.3l-24.42-14.1a.74.74,0,0,0-.76,0l-24.43,14.1-24-13.88-1.41.82a.72.72,0,0,0,.27.28l23.74,13.71,24.72,14.27L139,237.16h0l-24.8,14.33a.66.66,0,0,0-.27.28l1.41.82,24-13.88,23.28,13.44L139,265.81a.8.8,0,0,0-.27.28l1.42.82,24.42-14.1a.76.76,0,0,0,.38-.66.74.74,0,0,0-.38-.66l-23.66-13.66,23.28-13.44,48.08,27.76-48.46,28a.72.72,0,0,0-.27.28l1.41.82,49.22-28.42h0l0,0,.12-.11.1-.11,0,0,0-.09a.88.88,0,0,0,.05-.15.66.66,0,0,0,0-.14.76.76,0,0,0,0-.15.58.58,0,0,0-.05-.14.94.94,0,0,0,0-.09l0,0-.1-.11a.53.53,0,0,0-.12-.1s0,0,0,0l-48.47-28L189,210.06l24.42,14.1a.76.76,0,0,0,.77,0l24.42-14.1L263,224.17h0a1,1,0,0,0,.29.08l.08,0h0l.08,0a1,1,0,0,0,.29-.08h0l24.8-14.33a.73.73,0,0,0,.28-.27ZM164.15,222.62l-23.28-13.44,23.28-13.44,23.28,13.44Z" style="opacity:0.55"></path><polygon points="188.95 438.32 188.95 295.11 213.76 280.79 213.76 309.43 263.37 280.79 263.37 338.07 288.17 323.75 288.17 237.82 312.97 223.5 312.98 366.71 188.95 438.32" style="opacity:0.1"></polygon><polygon points="188.95 295.11 64.93 223.5 188.95 151.9 312.97 223.5 288.17 237.82 263.37 223.5 188.95 266.47 213.76 280.79 188.95 295.11" style="fill:#fff;opacity:0.2"></polygon><polygon points="64.93 223.5 188.12 295.77 188.95 438.32 189.81 295.86 213.76 280.79 188.95 293.93 64.93 223.5" style="fill:#fff;opacity:0.2"></polygon></g><path id="freepik--missing-piece--inject-15" d="M206,256l-2.66,1.53a.52.52,0,0,0,.26,1,.48.48,0,0,0,.26-.07l2.66-1.53a.52.52,0,1,0-.52-.9Zm-15.23,9.39a.52.52,0,0,0-.71-.19l-1.35.78a.51.51,0,0,0-.26.45.54.54,0,0,0,.26.45l1.35.78a.59.59,0,0,0,.26.07.52.52,0,0,0,.45-.26.51.51,0,0,0-.19-.71l-.57-.33.57-.33A.51.51,0,0,0,190.75,265.43Zm19.46,12.71-2.45-1.42a.52.52,0,0,0-.71.19.51.51,0,0,0,.19.71l2.45,1.42a.48.48,0,0,0,.26.07.5.5,0,0,0,.45-.26A.52.52,0,0,0,210.21,278.14Zm-4.91-2.84-2.46-1.41a.52.52,0,1,0-.52.9l2.46,1.41a.48.48,0,0,0,.26.07.52.52,0,0,0,.45-.26A.53.53,0,0,0,205.3,275.3Zm6.7-22.14a.52.52,0,0,0-.71-.19l-2.66,1.53a.53.53,0,0,0-.19.71.53.53,0,0,0,.45.26.48.48,0,0,0,.26-.07l2.66-1.53A.52.52,0,0,0,212,253.16Zm-16.65,9-2.65,1.53a.52.52,0,0,0-.19.71.5.5,0,0,0,.45.26.48.48,0,0,0,.26-.07l2.65-1.53a.51.51,0,0,0,.19-.71A.52.52,0,0,0,195.35,262.17Zm.12,7.46L193,268.21a.53.53,0,0,0-.71.19.52.52,0,0,0,.19.71l2.45,1.42a.54.54,0,0,0,.26.07.5.5,0,0,0,.45-.26A.51.51,0,0,0,195.47,269.63Zm4.92,2.84-2.46-1.42a.52.52,0,0,0-.52.9l2.46,1.42a.48.48,0,0,0,.26.07.52.52,0,0,0,.45-.26A.53.53,0,0,0,200.39,272.47Zm.28-13.37L198,260.64a.52.52,0,0,0-.19.71.54.54,0,0,0,.45.26.59.59,0,0,0,.26-.07l2.66-1.54a.52.52,0,1,0-.52-.9Zm12.57,23.25a.52.52,0,0,0,.52.52.53.53,0,0,0,.52-.52v-1.26l1.09-.63a.53.53,0,0,0,.19-.71.52.52,0,0,0-.71-.19l-1.09.63-1.09-.63a.52.52,0,0,0-.71.19.51.51,0,0,0,.19.71l1.09.63Zm1,14.18a.52.52,0,0,0-.52-.52.52.52,0,0,0-.52.52v2.83a.52.52,0,0,0,.52.52.52.52,0,0,0,.52-.52Zm3-46.44a.52.52,0,0,0-.71-.19L214,251.44a.51.51,0,0,0-.19.71.52.52,0,0,0,.45.26.63.63,0,0,0,.26-.07l2.65-1.54A.51.51,0,0,0,217.31,250.09Zm.71,28.84,2.66-1.54a.52.52,0,0,0-.52-.9L217.5,278a.53.53,0,0,0-.19.71.52.52,0,0,0,.45.26A.58.58,0,0,0,218,278.93Zm4.6-31.9a.51.51,0,0,0-.71-.19l-2.65,1.53a.52.52,0,0,0,.26,1,.48.48,0,0,0,.26-.07l2.65-1.53A.52.52,0,0,0,222.62,247Zm-2.26,58-2.75,1.6a.51.51,0,0,0-.19.71.52.52,0,0,0,.45.26.68.68,0,0,0,.26-.07l2.75-1.6a.51.51,0,0,0,.19-.71A.52.52,0,0,0,220.36,305Zm-6.6-20.35a.52.52,0,0,0-.52.52V288a.52.52,0,0,0,.52.52.52.52,0,0,0,.52-.52v-2.84A.53.53,0,0,0,213.76,284.66Zm0,17a.52.52,0,0,0-.52.52V305a.52.52,0,0,0,.52.52.52.52,0,0,0,.52-.52V302.2A.52.52,0,0,0,213.76,301.68Zm1.09,6.52-.57.33v-.66a.52.52,0,0,0-.52-.52.52.52,0,0,0-.52.52v1.56a.52.52,0,0,0,.26.45.52.52,0,0,0,.52,0l1.35-.78a.53.53,0,0,0,.19-.71A.52.52,0,0,0,214.85,308.2Zm-1.09-14a.52.52,0,0,0,.52-.52v-2.84a.53.53,0,0,0-.52-.52.52.52,0,0,0-.52.52v2.84A.52.52,0,0,0,213.76,294.21ZM271.82,229l2.46,1.42a.59.59,0,0,0,.26.07.54.54,0,0,0,.45-.26.52.52,0,0,0-.19-.71l-2.46-1.42a.53.53,0,0,0-.71.19A.53.53,0,0,0,271.82,229Zm9.83,5.67,2.45,1.42a.63.63,0,0,0,.26.07.52.52,0,0,0,.45-.26.51.51,0,0,0-.19-.71l-2.45-1.42a.52.52,0,0,0-.52.9Zm6,35.39a.52.52,0,0,0,1,0V267a.52.52,0,0,0-1,0Zm0,12.27a.52.52,0,0,0,1,0v-3.07a.52.52,0,0,0-1,0Zm-64.32-6.46,2.66-1.54a.52.52,0,0,0-.52-.9L222.81,275a.53.53,0,0,0-.19.71.55.55,0,0,0,.45.26A.59.59,0,0,0,223.33,275.86Zm53.41-44,2.45,1.42a.48.48,0,0,0,.26.07.5.5,0,0,0,.45-.26.52.52,0,0,0-.19-.71l-2.45-1.42a.53.53,0,0,0-.71.19A.51.51,0,0,0,276.74,231.82Zm-20-3.95a.48.48,0,0,0,.26-.07l2.66-1.53a.52.52,0,0,0,.19-.71.51.51,0,0,0-.71-.19l-2.66,1.53a.53.53,0,0,0-.19.71A.52.52,0,0,0,256.7,227.87Zm30.95,23.78a.52.52,0,0,0,1,0v-3.07a.52.52,0,1,0-1,0Zm0,6.14a.52.52,0,0,0,1,0v-3.07a.52.52,0,1,0-1,0Zm0,6.13a.52.52,0,0,0,1,0v-3.07a.52.52,0,0,0-1,0Zm.52-17.88a.52.52,0,0,0,.52-.52v-3.07a.52.52,0,1,0-1,0v3.07A.52.52,0,0,0,288.17,246Zm-24.8,43.2a.52.52,0,0,0,.52-.52v-3.19a.53.53,0,0,0-.52-.52.52.52,0,0,0-.52.52v3.19A.52.52,0,0,0,263.37,289.24Zm3.54-63.09,2.46,1.42a.48.48,0,0,0,.26.07.52.52,0,0,0,.45-.26.53.53,0,0,0-.19-.71l-2.46-1.42a.52.52,0,1,0-.52.9Zm-4.06,75.31a.52.52,0,0,0,.52.52.52.52,0,0,0,.52-.52v-3.18a.52.52,0,0,0-.52-.52.52.52,0,0,0-.52.52Zm1,9.56a.53.53,0,0,0-.52-.52.52.52,0,0,0-.52.52v3.19a.52.52,0,0,0,.52.52.52.52,0,0,0,.52-.52Zm-1-15.93a.52.52,0,0,0,.52.52.52.52,0,0,0,.52-.52v-3.18a.52.52,0,0,0-.52-.52.52.52,0,0,0-.52.52Zm1,22.31a.52.52,0,0,0-.52-.52.52.52,0,0,0-.52.52v3.18a.52.52,0,0,0,.52.52.52.52,0,0,0,.52-.52Zm-1.61-92.67,1.09-.63,1.09.63a.47.47,0,0,0,.25.07.52.52,0,0,0,.27-1l-1.35-.78a.53.53,0,0,0-.52,0l-1.35.78a.52.52,0,1,0,.52.9Zm1.61,99a.52.52,0,0,0-.52-.52.52.52,0,0,0-.52.52V327a.52.52,0,0,0,.52.52.52.52,0,0,0,.52-.52Zm-.52,5.85a.52.52,0,0,0-.52.52v3.19a.52.52,0,0,0,.52.52.53.53,0,0,0,.52-.52v-3.19A.52.52,0,0,0,263.37,329.62Zm24.28-53.43a.52.52,0,0,0,1,0v-3.07a.52.52,0,0,0-1,0ZM274,246a.52.52,0,0,0-.71-.19l-2.66,1.54a.51.51,0,0,0,.26,1,.48.48,0,0,0,.26-.07l2.66-1.53A.52.52,0,0,0,274,246Zm.29,85.16-2.46,1.42a.52.52,0,0,0,.27,1,.47.47,0,0,0,.25-.07l2.46-1.42a.52.52,0,1,0-.52-.9Zm7.49-89.05,2.65-1.53a.51.51,0,0,0,.19-.71.52.52,0,0,0-.71-.19l-2.65,1.53a.52.52,0,0,0-.19.71.5.5,0,0,0,.45.26A.48.48,0,0,0,281.77,242.12Zm-2.58,86.21-2.45,1.42a.51.51,0,0,0-.19.71.52.52,0,0,0,.71.19l2.45-1.42a.51.51,0,0,0,.19-.71A.52.52,0,0,0,279.19,328.33Zm.11-85.39a.53.53,0,0,0-.71-.19l-2.65,1.54a.51.51,0,0,0-.19.71.52.52,0,0,0,.45.26.54.54,0,0,0,.26-.07l2.65-1.54A.52.52,0,0,0,279.3,242.94ZM269.37,334l-2.46,1.41a.53.53,0,0,0-.19.71.52.52,0,0,0,.45.26.48.48,0,0,0,.26-.07l2.46-1.41a.53.53,0,0,0,.19-.71A.51.51,0,0,0,269.37,334Zm-4.91,2.83-.57.33v-.66a.53.53,0,0,0-.52-.52.52.52,0,0,0-.52.52v1.56a.51.51,0,0,0,.26.45.52.52,0,0,0,.52,0l1.35-.78a.52.52,0,0,0-.52-.9Zm-1.09-28.48a.53.53,0,0,0,.52-.52v-3.19a.52.52,0,0,0-.52-.52.52.52,0,0,0-.52.52v3.19A.52.52,0,0,0,263.37,308.36Zm5.31-59.28a.52.52,0,0,0-.71-.19l-2.66,1.53a.52.52,0,0,0-.19.71.52.52,0,0,0,.45.26.48.48,0,0,0,.26-.07l2.66-1.53A.52.52,0,0,0,268.68,249.08Zm19.49,66.46a.52.52,0,0,0-.52.52v3.07a.52.52,0,0,0,1,0v-3.07A.52.52,0,0,0,288.17,315.54Zm0-12.27a.52.52,0,0,0-.52.52v3.07a.52.52,0,0,0,1,0v-3.07A.52.52,0,0,0,288.17,303.27Zm0-12.27a.52.52,0,0,0-.52.52v3.07a.52.52,0,1,0,1,0v-3.07A.52.52,0,0,0,288.17,291Zm0,6.14a.52.52,0,0,0-.52.52v3.06a.52.52,0,0,0,1,0v-3.06A.52.52,0,0,0,288.17,297.14ZM284.1,325.5l-2.45,1.42a.52.52,0,0,0-.19.71.54.54,0,0,0,.45.26.59.59,0,0,0,.26-.07l2.45-1.42a.52.52,0,0,0-.52-.9Zm4.07-40.63a.52.52,0,0,0-.52.52v3.07a.52.52,0,1,0,1,0v-3.07A.52.52,0,0,0,288.17,284.87Zm-1.8-46a.59.59,0,0,0,.17.18l.07,0a.47.47,0,0,0,.16,0h.08a.48.48,0,0,0,.23-.07l.57-.32v.65a.52.52,0,1,0,1,0v-1.55a.51.51,0,0,0-.26-.45l-1.35-.78a.51.51,0,0,0-.71.19.53.53,0,0,0,.19.71l.57.33-.57.32A.53.53,0,0,0,286.37,238.86Zm1.8,70.54a.52.52,0,0,0-.52.52V313a.52.52,0,0,0,1,0v-3.07A.52.52,0,0,0,288.17,309.4Zm0,12.27a.52.52,0,0,0-.52.52v1.26l-1.09.63a.52.52,0,0,0,.26,1,.48.48,0,0,0,.26-.07l1.35-.78a.51.51,0,0,0,.26-.45v-1.56A.52.52,0,0,0,288.17,321.67Zm-25.32-39.32a.52.52,0,0,0,.52.52.53.53,0,0,0,.52-.52v-1.56a.51.51,0,0,0-.26-.45.53.53,0,0,0-.52,0l-1.35.78a.51.51,0,0,0-.19.71.52.52,0,0,0,.71.19l.57-.33Zm-15.42-21a.52.52,0,0,0-.71-.19l-2.66,1.53a.52.52,0,0,0,.26,1,.48.48,0,0,0,.26-.07l2.66-1.53A.52.52,0,0,0,247.43,261.35Zm-10.51,34.11-2.76,1.59a.52.52,0,0,0,.26,1,.48.48,0,0,0,.26-.07l2.76-1.59a.53.53,0,0,0,.19-.71A.51.51,0,0,0,236.92,295.46Zm1.64-57.63a.51.51,0,0,0-.71-.19l-2.65,1.53a.51.51,0,0,0-.19.71.52.52,0,0,0,.45.26.54.54,0,0,0,.26-.07l2.65-1.54A.51.51,0,0,0,238.56,237.83Zm3.56,26.58a.53.53,0,0,0-.71-.19l-2.66,1.54a.52.52,0,0,0-.19.71.54.54,0,0,0,.45.26.59.59,0,0,0,.26-.07l2.66-1.54A.53.53,0,0,0,242.12,264.41Zm-5.51,3.78a.52.52,0,1,0-.51-.9l-2.66,1.53a.52.52,0,0,0-.19.71.52.52,0,0,0,.45.26.48.48,0,0,0,.26-.07Zm-5.21,30.45-2.76,1.59a.53.53,0,0,0-.19.71.52.52,0,0,0,.45.26.58.58,0,0,0,.26-.06l2.76-1.6a.51.51,0,0,0,.19-.71A.52.52,0,0,0,231.4,298.64Zm-.1-27.38a.51.51,0,0,0,.19-.71.52.52,0,0,0-.71-.19l-2.65,1.53a.51.51,0,0,0-.19.71.52.52,0,0,0,.71.19ZM227.94,244a.51.51,0,0,0-.71-.19l-2.66,1.53a.52.52,0,0,0-.19.71.52.52,0,0,0,.45.26.48.48,0,0,0,.26-.07l2.66-1.53A.53.53,0,0,0,227.94,244Zm35.43,8.19a.52.52,0,0,0-.71-.19L260,253.49a.52.52,0,0,0,.26,1,.48.48,0,0,0,.26-.07l2.66-1.53A.53.53,0,0,0,263.37,252.15Zm-20.93,40.12-2.76,1.59a.52.52,0,0,0-.19.71.52.52,0,0,0,.45.26.48.48,0,0,0,.26-.07l2.76-1.59a.52.52,0,0,0-.52-.9Zm-9.19-51.38a.52.52,0,0,0-.71-.19l-2.66,1.54a.53.53,0,0,0-.19.71.54.54,0,0,0,.45.26.59.59,0,0,0,.26-.07l2.66-1.54A.52.52,0,0,0,233.25,240.89Zm24.8,14.32a.52.52,0,0,0-.71-.19l-2.65,1.54a.51.51,0,0,0-.19.71.52.52,0,0,0,.45.26.59.59,0,0,0,.26-.07l2.65-1.54A.51.51,0,0,0,258.05,255.21Zm-4.57,30.69-2.76,1.59a.52.52,0,0,0-.19.71.5.5,0,0,0,.45.26.48.48,0,0,0,.26-.07L254,286.8a.52.52,0,0,0-.52-.9Zm1-57.28a.53.53,0,0,0-.71-.19L251.13,230a.52.52,0,0,0-.19.71.54.54,0,0,0,.45.26.59.59,0,0,0,.26-.07l2.66-1.54A.52.52,0,0,0,254.5,228.62Zm4.5,54.09-2.76,1.59a.51.51,0,0,0-.19.71.52.52,0,0,0,.71.19l2.76-1.59a.52.52,0,1,0-.52-.9Zm-15.13-47.95a.52.52,0,0,0-.71-.19l-2.65,1.53a.51.51,0,0,0-.19.71.52.52,0,0,0,.71.19l2.65-1.53A.51.51,0,0,0,243.87,234.76Zm8.87,23.52a.52.52,0,0,0-.71-.19l-2.65,1.53a.51.51,0,0,0-.19.71.5.5,0,0,0,.45.26.54.54,0,0,0,.26-.07l2.65-1.53A.52.52,0,0,0,252.74,258.28ZM248,289.08l-2.76,1.6a.52.52,0,0,0-.19.71.54.54,0,0,0,.45.26.59.59,0,0,0,.26-.07l2.76-1.6a.52.52,0,1,0-.52-.9Zm-22.08,12.75-2.76,1.59a.52.52,0,0,0,.27,1,.47.47,0,0,0,.25-.07l2.76-1.59a.52.52,0,0,0-.52-.9Zm23.31-70.14a.53.53,0,0,0-.71-.19L245.82,233a.53.53,0,0,0-.19.71.52.52,0,0,0,.45.26.48.48,0,0,0,.26-.07L249,232.4A.53.53,0,0,0,249.19,231.69Z" style="fill:#fafafa"></path></g><g id="freepik--figure-2--inject-15"><g id="freepik--Piece--inject-15"><polygon points="356.32 381.1 381.12 395.42 381.13 424.06 356.32 409.74 356.32 381.1" style="fill:#8247E5"></polygon><polygon points="356.32 381.1 381.12 395.42 381.13 424.06 356.32 409.74 356.32 381.1" style="opacity:0.30000000000000004"></polygon><polygon points="356.32 409.74 381.12 424.06 430.73 395.42 381.12 366.77 356.32 381.09 381.12 395.42 356.32 409.74" style="fill:#8247E5"></polygon><polygon points="356.32 409.74 381.12 424.06 381.13 452.7 356.32 438.38 356.32 409.74" style="fill:#8247E5"></polygon><polygon points="356.32 409.74 381.12 424.06 430.73 395.42 381.12 366.77 356.32 381.09 381.12 395.42 356.32 409.74" style="opacity:0.15"></polygon><polygon points="356.32 409.74 381.12 424.06 381.13 452.7 356.32 438.38 356.32 409.74" style="opacity:0.30000000000000004"></polygon><polygon points="381.13 452.7 430.73 424.06 430.73 395.42 381.12 424.06 381.13 452.7" style="fill:#8247E5"></polygon><polygon points="381.13 452.7 430.73 424.06 430.73 395.42 381.12 424.06 381.13 452.7" style="opacity:0.45"></polygon></g></g><g id="freepik--figure-1--inject-15"><g id="freepik--piece--inject-15"><polygon points="253.35 448.47 228.54 434.15 228.55 462.79 253.35 477.11 253.35 448.47" style="fill:#8247E5"></polygon><polygon points="302.96 448.47 278.15 434.15 278.16 462.79 302.96 477.11 302.96 448.47" style="fill:#8247E5"></polygon><g style="opacity:0.5"><polygon points="253.35 448.47 228.54 434.15 228.55 462.79 253.35 477.11 253.35 448.47" style="fill:#fff"></polygon><polygon points="302.96 448.47 278.15 434.15 278.16 462.79 302.96 477.11 302.96 448.47" style="fill:#fff"></polygon></g><polygon points="302.96 419.83 327.76 405.51 327.76 434.15 302.96 448.47 302.96 419.83" style="fill:#8247E5"></polygon><polygon points="302.96 419.83 327.76 405.51 327.76 434.15 302.96 448.47 302.96 419.83" style="fill:#fff;opacity:0.2"></polygon><polygon points="302.96 448.47 327.76 434.15 302.96 419.83 327.76 405.51 302.96 391.19 228.54 434.15 253.35 448.47 278.15 434.15 302.96 448.47" style="fill:#8247E5"></polygon><polygon points="302.96 448.47 327.76 434.15 302.96 419.83 327.76 405.51 302.96 391.19 228.54 434.15 253.35 448.47 278.15 434.15 302.96 448.47" style="fill:#fff;opacity:0.7000000000000001"></polygon><polygon points="302.96 448.47 327.76 434.15 327.76 462.79 302.96 477.11 302.96 448.47" style="fill:#8247E5"></polygon><polygon points="253.35 448.47 278.15 434.15 278.15 462.79 253.35 477.11 253.35 448.47" style="fill:#8247E5"></polygon><g style="opacity:0.30000000000000004"><polygon points="302.96 448.47 327.76 434.15 327.76 462.79 302.96 477.11 302.96 448.47" style="fill:#fff"></polygon><polygon points="253.35 448.47 278.15 434.15 278.15 462.79 253.35 477.11 253.35 448.47" style="fill:#fff"></polygon></g></g></g><g id="freepik--Character--inject-15"><g id="freepik--character--inject-15"><g id="freepik--Bottom--inject-15"><path d="M434.1,331.06c-1-13.07.52-23.09-.57-43.5h0c-.1-5.24-.29-10.84-.64-15.82-1.18-16.75-3.76-22.48-4-25.71,0,0-.44-26.07-1.54-62.72-.51-17.25-5.51-22.47-9.5-31.62H370.39c-5.3,22.58-6.81,71.84-6.65,95.11.08,11.87,4.87,75.35,5,76.81.34,5.18-.11,7.23-2.14,9.41-4.25,4.56-10.42,8.9-15.75,12.88.78,2,7.18,2,10.36.41A81.38,81.38,0,0,0,373,338.77c4.38-3.24,10-5.84,10.05-10.77a4.5,4.5,0,0,1,.15-.88c.08-2.88,6.79-45.35,7.35-55.2.48-8.47-.55-22.85-.55-22.85l5.47-35.89s3.37,21.21,6.78,35.69c2.77,11.79,7.35,31.91,10.47,46.42h0c3,16.72,7.41,28.62,8.17,37,.23,2,2.49,21.61,3.43,26.1S435,363,435.66,355.26C436.08,350.12,434.28,333.52,434.1,331.06Z" style="fill:#9e6767"></path><path d="M395.46,213.18l-4-25.89s-15.45-1.84-21.07-7.24c0,0,7.08,10,17.57,11.63l4.4,21.46L390,248.76Z" style="fill:#874c4c"></path><path d="M341.75,351.11c-.27,0-.71,3,.74,4.27,1.69,1.48,6.65,3.94,13.25,3.16s10.18-2.78,12.84-5,6.39-5.25,9.38-5.88c2.78-.58,5.8-1.8,6.69-2.65s.81-4.65.81-4.65Z" style="fill:#263238"></path><path d="M383.32,325.73s.5,0,.66.9c.19,1.05.38,4.1.8,5.83a30.83,30.83,0,0,1,.55,9.25c-.39,1.94-4.92,3.25-7.81,4.32a36.55,36.55,0,0,0-9.41,5.8c-3.12,2.52-9.66,5-14,5-6.56,0-10.78-1.79-12.07-4.16-1.59-2.94-.3-4.61,7.27-8,1.44-.65,6.48-3.56,8.2-4.61a39.55,39.55,0,0,0,5.16-3.76A27.62,27.62,0,0,0,365,334a10.13,10.13,0,0,0,1.93-2.41c.09-.2.15-.43.23-.64a10.74,10.74,0,0,0,.51-1.76c.13-.62.21-1.54.81-1.9a5,5,0,0,1,2.7-.29,20.31,20.31,0,0,1,2.9.44c1.11.26,2.39.37,3,1.42a5.48,5.48,0,0,1,.6,2.74c0,.44,0,.88,0,1.32,0,.19-.08.52.18.45s.54-.73.64-1c.21-.49.35-1,.59-1.5a8.39,8.39,0,0,1,1-1.58,7.69,7.69,0,0,1,1.21-1.21,12.39,12.39,0,0,0,1.3-.82A3,3,0,0,0,383.32,325.73Z" style="fill:#37474f"></path><path d="M348.13,345.23c9.49.76,12.41,6.65,12.78,10.28a22.14,22.14,0,0,1-6.76,1.34c-6.56,0-11-1.79-12.34-4.16C340.31,349.92,341.38,347.71,348.13,345.23Z" style="fill:#fafafa"></path><path d="M362.36,345.48a.45.45,0,0,0,.29-.1.47.47,0,0,0,.08-.65,11.19,11.19,0,0,0-8.55-3.48.47.47,0,0,0-.42.51.46.46,0,0,0,.51.41,10.34,10.34,0,0,1,7.73,3.14A.46.46,0,0,0,362.36,345.48Z" style="fill:#f0f0f0"></path><path d="M366.47,343.14a.47.47,0,0,0,.3-.1.46.46,0,0,0,.07-.65,11.19,11.19,0,0,0-8.55-3.48.47.47,0,0,0-.41.51.46.46,0,0,0,.5.42,10.28,10.28,0,0,1,7.73,3.13A.48.48,0,0,0,366.47,343.14Z" style="fill:#f0f0f0"></path><path d="M370.29,340.46a.45.45,0,0,0,.29-.1.46.46,0,0,0,.07-.65,11.16,11.16,0,0,0-8.54-3.48.48.48,0,0,0-.42.51.47.47,0,0,0,.51.42,10.3,10.3,0,0,1,7.73,3.13A.46.46,0,0,0,370.29,340.46Z" style="fill:#f0f0f0"></path><path d="M374,337.78a.47.47,0,0,0,.37-.75c-1.79-2.31-5.89-3.87-9.34-3.53a.47.47,0,0,0,.09.93c3.11-.31,6.93,1.12,8.52,3.17A.44.44,0,0,0,374,337.78Z" style="fill:#f0f0f0"></path><path d="M421.23,361.88c.26,4.47,1,7.44,2.55,10.07s4.58,3.45,7.62,2.68,6.92-2.82,7.79-6.69,1.37-6.51.69-10.66Z" style="fill:#263238"></path><path d="M434,329.46c1.25.1,1.62,6.11,2.34,12.13.77,6.45,2.7,9.12,3.39,14.41.79,6-.21,8.74-2.33,12.39s-9.61,7.24-13.31,2c-3-4.27-3.13-9-2.86-15a131.73,131.73,0,0,0-.4-15.29c-.24-4.53-1.25-9.09-.16-9.59.08.66.17,1.5.25,2.16a11,11,0,0,0,.41,2.41c.13.33.4.69.52.14a3.57,3.57,0,0,0,0-1.13c-.19-1.66.65-1.8,1.11-1.93a53.93,53.93,0,0,1,5.8-.82c.95-.06,4.25-.21,4.68.34a3.69,3.69,0,0,1,.42,1.74c.11.91.32,1.58.34,1.29.06-.65-.06-2.34-.08-2.75s-.08-.93-.09-1.32S434,329.85,434,329.46Z" style="fill:#37474f"></path><path d="M440.07,359.5a15.09,15.09,0,0,1-2.34,9.18c-2.12,3.65-10.22,7.25-13.91,2-1.84-2.61-2.33-5.68-2.59-8.83C423.45,357.84,436.57,356.06,440.07,359.5Z" style="fill:#fafafa"></path><path d="M424,355.3a.47.47,0,0,0,.16,0c.05,0,5.83-2.42,11.46-1.11a.48.48,0,0,0,.56-.35.47.47,0,0,0-.35-.56c-6-1.37-11.85,1.08-12.08,1.18a.47.47,0,0,0-.21.62A.45.45,0,0,0,424,355.3Z" style="fill:#f0f0f0"></path><path d="M435.3,349.64a.45.45,0,0,0,.4-.31.47.47,0,0,0-.29-.59c-5.61-1.9-11.83.95-12.06,1.08a.46.46,0,0,0-.2.62.47.47,0,0,0,.63.2c.05,0,6.11-2.79,11.33-1A.41.41,0,0,0,435.3,349.64Z" style="fill:#f0f0f0"></path><path d="M435.11,345.4a.48.48,0,0,0,.39-.31.47.47,0,0,0-.28-.59c-6.17-2.21-12.07.91-12.29,1a.46.46,0,1,0,.48.79s5.75-3,11.49-1A.51.51,0,0,0,435.11,345.4Z" style="fill:#f0f0f0"></path><path d="M434.8,341.22a.48.48,0,0,0,.39-.3.47.47,0,0,0-.27-.6c-5.78-2.16-12.14,1-12.38,1.17a.47.47,0,0,0-.17.63.46.46,0,0,0,.64.17c.05,0,6.22-3.11,11.58-1.1Z" style="fill:#ebebeb"></path><path d="M419.12,151.84c5.62,10.25,9.79,18.63,10.36,49.12s.48,39,.6,42.7,2.26,10.25,4.13,28.35-.34,39.69-.34,39.69-1.3,2.91-8.22,3.53c-6.39.57-9.55-1.82-9.55-1.82s-8.76-35.26-11.18-46.17-9.46-46.77-9.46-46.77l-4.18,29.09s2,10,0,25.87-5.38,32.14-5.38,32.14a28.83,28.83,0,0,1-9.81,1.61,16.65,16.65,0,0,1-8.61-2.25s-5.43-47.25-5.43-65.25,1.52-63,7.19-89.64Z" style="fill:#37474f"></path><path d="M395.46,220.47l-5.71-34.61S377.72,185,371,178c2.71,7.44,12.59,12.64,16.93,13.68l5.09,28.4-1.77,29.48Z" style="fill:#263238"></path><path d="M428.48,250.29c-2-8.09-4.35-17.27-4.53-39.8-.19-24.29-3-40.08-9.84-54.51l-.91.43a95.26,95.26,0,0,1,8.11,28.35c-2.08.53-4.26.76-6.32-.53-2.59-1.63-4.45-5.44-5.53-11.34-2.6-14.17-5.55-18.76-5.67-18.95l-.84.55s3,4.66,5.53,18.58c1.15,6.27,3.1,10.2,6,12a7.29,7.29,0,0,0,4,1.1,13.19,13.19,0,0,0,3-.42A202.42,202.42,0,0,1,423,210.5c.18,22.65,2.51,31.88,4.56,40,.39,1.51.76,3,1.12,4.54,2.2,9.54,4.55,36.87,3.32,58.41a6.72,6.72,0,0,0,1-.75c1.14-21.5-1.2-48.4-3.39-57.89C429.24,253.3,428.87,251.81,428.48,250.29Z" style="fill:#263238"></path><path d="M382.75,187.78c-.19,1.94-4.61,47.55-3.58,57.29.24,2.31.54,4.46.83,6.54a124.08,124.08,0,0,1,1.18,27.53c-.66,12.09-.95,23.59-1.07,29.79l1-.14c.12-6.24.42-17.63,1.06-29.59A124.49,124.49,0,0,0,381,251.48c-.29-2.08-.58-4.22-.83-6.52-1-9.63,3.53-56.61,3.58-57.08Z" style="fill:#263238"></path></g><g id="freepik--Top--inject-15"><g id="freepik--Arm--inject-15"><path d="M382.68,99.06c-10.05,1.74-11.54,3.18-16.92,9.21-6.69,7.53-8.25,9.3-18.05,19.24l-30.53-9.72v16.39s21.47,10.18,28.65,12.61c5.38,1.81,8.42-.68,12.65-4.57,6.47-6,19.54-18.28,19.54-18.28Z" style="fill:#9e6767"></path></g><path id="freepik--Chest--inject-15" d="M426.36,168.29c-.85-3.53-3.44-14.08-3.72-16.14-1.6-11.94,1.93-15.45,1.93-27.08s-3.18-22.53-5.83-24.77c0,0-3-.75-5.53-1.2-2-.36-3.54-.59-6.18-1.23-6.57-1.6-13.75,0-16.25.22a27.2,27.2,0,0,0-5.13.37c-1.77.41-5.89,1.12-5.9,1.13a64.31,64.31,0,0,0-10.68,15.3c-2.56,5.33-2.55,8.84-1.72,17.42a117.89,117.89,0,0,1,.22,16c-.28,8.93-.57,13.12-1.05,19.94C378.17,175.44,411.32,177.05,426.36,168.29Z" style="fill:#8247E5"></path><path id="freepik--chest--inject-15" d="M426.36,168.29c-.85-3.53-3.44-14.08-3.72-16.14-1.6-11.94,1.93-15.45,1.93-27.08s-3.18-22.53-5.83-24.77c0,0-3-.75-5.53-1.2-2-.36-3.54-.59-6.18-1.23-6.57-1.6-13.75,0-16.25.22a27.2,27.2,0,0,0-5.13.37c-1.77.41-5.89,1.12-5.9,1.13a64.31,64.31,0,0,0-10.68,15.3c-2.56,5.33-2.55,8.84-1.72,17.42a117.89,117.89,0,0,1,.22,16c-.28,8.93-.57,13.12-1.05,19.94C378.17,175.44,411.32,177.05,426.36,168.29Z" style="fill:#fff;opacity:0.2"></path><g id="freepik--Head--inject-15"><path d="M429.84,68.33c.82-1.32,1.09-4,.08-5.13a6.22,6.22,0,0,0-3.71-2,3.27,3.27,0,0,1-2.85-3.61c-.21-2.81-1.1-4.41-2.67-5.45-3.15-2.08-7.39-2.65-12.22-.24l-9.69,31.68c2.09,2.09,2.52,3.6,3.74,4.23s2.57.2,3.71.76a10,10,0,0,1,1.85,1.54,4.54,4.54,0,0,0,4.92.41c1.31-.73,2.23-2.11,3.65-2.58,2.05-.68,4.32.78,6.4.2a2,2,0,0,0,1.14-.72c.77-1.12-.35-2.63-.13-4a3.58,3.58,0,0,1,1.28-1.93,6.66,6.66,0,0,0,1.6-1.71,1.78,1.78,0,0,0-.22-2.17,2,2,0,0,1,1.49,1.76,6,6,0,0,1-.32,2.43,5.13,5.13,0,0,0,1.78-7.5c-.54-.77-1.33-1.46-1.37-2.4C428.22,70.44,429,69.62,429.84,68.33Z" style="fill:#263238"></path><path d="M413.51,52.18c4.61.28,7.67,7.54,4.55,12.72S406.38,51.33,413.51,52.18Z" style="fill:#8247E5"></path><path d="M372.41,54.41c.58-5.66,6.92-6.16,8.62-6a8,8,0,0,0,6.4-3,8.05,8.05,0,0,1,7.7-2.63c4.56,1,3.6,2.92,7.47,4.06,3.45,1,5.93-.22,9.16,2.61a8.85,8.85,0,0,1,2.61,7.31c2.38,1.34,5.85,9.77,1.46,19.36-2.25,4.93-5.11,7.3-8.62,11.45l-3.56.16c-1.29-3-4.29-2.28-7.09-2.86-1.8-.73-2.89-2.67-4.69-3.39s-3.91,0-5.87-.31c-1.52-.2-3.08-1-4.63-.58-3.51,1.6-9-1.29-8.78-5.42.09-1.26.72-2.5.43-3.72-.38-1.6-2.14-2.43-3.11-3.75a4.3,4.3,0,0,1,0-5.17C372.41,59.62,372.08,57.62,372.41,54.41Z" style="fill:#263238"></path><path d="M407,95c0-1.86.36-11.21.36-11.21.07.7,3.44,2.63,6.51-.94s3.3-7.41,1.51-9.86c-2-2.71-6.46-2.61-8.29,1.78-1.34,0-3.49-.25-2.8-7.2,0-8.39-8.14-15.35-15-9.55-2.65-4.7-8.32-2.85-10.42,1.71-1.16,2.86-1.54,3.84-1,9.26.1.91-1,2.85-.93,6.91.24,10.06,2.57,13.6,5.83,15.09,1.95.89,3.9,1.14,7.62.87l-.2,3.11h0c-.08,1.56.05,2.23-1.47,2.72-1,.34-3.06.76-3.06.76s-7.86,9.48,5.94,10.28a25,25,0,0,0,21.62-9.64l-3.44-.63C407.24,98,407,96.88,407,95Z" style="fill:#9e6767"></path><path d="M394.15,80.64l-5.23,1.62a2.7,2.7,0,0,0,3.37,1.9A2.87,2.87,0,0,0,394.15,80.64Z" style="fill:#874c4c"></path><path d="M393.81,81.84a3,3,0,0,0-3,2.32,2.59,2.59,0,0,0,1.51,0,2.82,2.82,0,0,0,1.92-2.26A2.57,2.57,0,0,0,393.81,81.84Z" style="fill:#f28f8f"></path><path d="M379.58,65.8l3.74-1.93a2,2,0,0,0-2.78-.95A2.2,2.2,0,0,0,379.58,65.8Z" style="fill:#263238"></path><path d="M398.39,66.5l-3.62-2.25a2,2,0,0,1,2.87-.74A2.25,2.25,0,0,1,398.39,66.5Z" style="fill:#263238"></path><path d="M383.75,70.15a1.81,1.81,0,0,1-1.64,1.9,1.69,1.69,0,0,1-1.86-1.56,1.79,1.79,0,0,1,1.63-1.9A1.7,1.7,0,0,1,383.75,70.15Z" style="fill:#263238"></path><path d="M396.45,70.58a1.81,1.81,0,0,1-1.63,1.89A1.69,1.69,0,0,1,393,70.91a1.81,1.81,0,0,1,1.63-1.9A1.7,1.7,0,0,1,396.45,70.58Z" style="fill:#263238"></path><polygon points="382.53 75.89 388.05 78.59 389.27 67.92 382.53 75.89" style="fill:#874c4c"></polygon><path d="M390.38,91.87c6.67-.62,13.07-2.75,14.6-5.77A6,6,0,0,1,402.25,91c-3.81,2.2-12,3.24-12,3.24Z" style="fill:#874c4c"></path></g><g id="freepik--arm--inject-15"><path d="M389,127.35c-3.46-2.17-5.18-3-6.74-3.29s-7.08-2.1-9.17-2.44c-1.32-.22-1.68,1.89.09,3.18,1.36,1,4.79,2.15,6.3,2.83s4.65,3.91,4.65,3.91Z" style="fill:#874c4c"></path><path d="M432.33,108.51c-3.79-6.63-5.21-6.43-13.59-8.21-6.79,7.78-1.17,24.3-1.17,24.3l7.54,18.23s-19.94-3.67-22.27-4.91-8.76-7.12-10.9-8.87c-2.91-2.38-4.23-1.92-5.59-1.6-4.44,1-5.4,1.5-6.3,2.18a2,2,0,0,0-.74,1.82c-1.18.25-3,.35-3.05,2.34a5.76,5.76,0,0,0,.06,1.58,1.25,1.25,0,0,0-.74.5c-.9,1.24,1.13,5.09,2.29,6,.81.62,1.91.62,3.31.31,1.2-.26.54-1.45.54-1.45l1.7,0c3.87,2.3,4.47,7.44,9.41,8.19a32.49,32.49,0,0,1,6,.67c10.7,2.65,28.64,11.89,38,11.94,9.13,0,8.48-4.77,8.17-10.33C444.72,146.18,436.11,115.13,432.33,108.51Z" style="fill:#9e6767"></path><path d="M424.57,141l.54,1.87c4.21.73,8.91,3.34,10.08,5.52C434.13,144.83,432,142.32,424.57,141Z" style="fill:#874c4c"></path><path d="M379.31,131.45l5.26-1.51-5.21.76A2.14,2.14,0,0,0,379.31,131.45Z" style="fill:#874c4c"></path><path d="M376.32,135.37l6.09-1.3-6.15.58A3,3,0,0,0,376.32,135.37Z" style="fill:#874c4c"></path><path d="M377.35,138a1.88,1.88,0,0,0,.89.65,3.9,3.9,0,0,0,1.08.28l-.09-.06c.19.31.39.62.6.91l.11-.17a1.23,1.23,0,0,0-1,.32,1.64,1.64,0,0,0-.47.85,1.81,1.81,0,0,1,.57-.73,1.29,1.29,0,0,1,.82-.22l.24,0-.12-.2c-.19-.31-.39-.61-.6-.91l0,0h-.05a7.48,7.48,0,0,1-1-.2A2.38,2.38,0,0,1,377.35,138Z" style="fill:#874c4c"></path><path d="M379.05,138.67a18.73,18.73,0,0,0,2.24,0s.08.43.86,1.12a12.71,12.71,0,0,0,1.27.9l-1.7,0a2.72,2.72,0,0,0-2-.89Z" style="fill:#874c4c"></path></g><polygon points="274.32 94.76 342.29 42.2 353.83 127.34 331.17 144.86 323.48 88.1 278.16 123.14 274.32 94.76" style="fill:#37474f"></polygon><polygon points="342.29 42.2 315.79 31.33 247.82 83.89 274.32 94.76 342.29 42.2" style="fill:#455a64"></polygon><polygon points="247.82 83.89 251.66 112.28 278.16 123.14 274.32 94.76 247.82 83.89" style="fill:#263238"></polygon><polygon points="331.17 144.86 304.67 134 300.82 105.62 323.48 88.1 331.17 144.86" style="fill:#263238"></polygon><polygon points="331.17 144.86 304.67 134 300.82 105.62 323.48 88.1 331.17 144.86" style="opacity:0.15"></polygon><g id="freepik--Tablet--inject-15"><path d="M299.16,115.06c-1-2.26-.84-2.49.13-3.34a6.3,6.3,0,0,1,5.56-1.58c1.73.39,3.48.71,4.28,1.35s-.33,2.37-2.69,2.42c-3.72.09-3.89,1.06-3.89,1.06a45.4,45.4,0,0,1,4.76.11,34.62,34.62,0,0,1,5.06,1.83c1.45.54,1.36,2.54-1.32,2.69l2.67,1c1.86.7,2.31,1.85.56,2.74a2.91,2.91,0,0,1-1.87.31s2,.4,1.95,1.09c-.26,2-1.63,2.24-6,2.62A6.63,6.63,0,0,0,304,129l.46,3.35s-2.43-2.29-3.65-3.55c-.9-.93-1.61-1.91-.82-3.43,0,0-2.27-.41-2.13-1.83a7.34,7.34,0,0,1,1.14-2.89,2.51,2.51,0,0,1-.78-2.56,4.06,4.06,0,0,1,1.31-2.29Z" style="fill:#9e6767"></path><path d="M311.05,119.6a12.62,12.62,0,0,0-2.44-.76,8.32,8.32,0,0,0-2.57.28,30.71,30.71,0,0,0-4.82,1.46,30.38,30.38,0,0,0,5-.73,13.52,13.52,0,0,1,2.38-.44C309.34,119.44,310.21,119.6,311.05,119.6Z" style="fill:#874c4c"></path><path d="M312.41,123.64a5.54,5.54,0,0,0-2.69-.62,14.53,14.53,0,0,0-2.73.29,26.32,26.32,0,0,0-5.21,1.58,52.29,52.29,0,0,0,5.35-.85A14.24,14.24,0,0,1,312.41,123.64Z" style="fill:#874c4c"></path></g></g></g></g><g id="freepik--speech-bubble--inject-15"><g id="freepik--speech-bubble--inject-15"><g id="freepik--speech-bubble--inject-15"><path d="M126.13,45.07a45.69,45.69,0,1,0,45.68,45.69A45.74,45.74,0,0,0,126.13,45.07Zm0,85.8a40.11,40.11,0,1,1,40.1-40.11A40.16,40.16,0,0,1,126.13,130.87Z" style="fill:#455a64"></path><path d="M166.23,90.76a40.11,40.11,0,1,1-40.1-40.11A40.15,40.15,0,0,1,166.23,90.76Z" style="fill:#fff"></path><path d="M123.66,149l-5.85-15.1h16.65L128.6,149A2.65,2.65,0,0,1,123.66,149Z" style="fill:#455a64"></path></g><g id="freepik--Brain--inject-15"><g id="freepik--brain--inject-15"><path d="M121.25,106.85a6.1,6.1,0,0,1-5.69-4,.15.15,0,0,0-.14-.1,6.12,6.12,0,0,1-5.74-3.07,6,6,0,0,1-.77-3.4,6.06,6.06,0,0,1-4.13-9.59.33.33,0,0,0,0-.44A6.07,6.07,0,0,1,108.24,76a6.08,6.08,0,0,1,7.16-9.53l0-.16a6,6,0,0,1,5.82-4.74,6.07,6.07,0,0,1,6.07,6.07v33.15A6.08,6.08,0,0,1,121.25,106.85Zm-5.82-6.45a2.55,2.55,0,0,1,2.38,1.66,3.67,3.67,0,0,0,7.12-1.28V67.63A3.68,3.68,0,0,0,121.25,64a3.56,3.56,0,0,0-3.48,2.83l-.22,1.09a1.72,1.72,0,0,1-2.68,1,3.68,3.68,0,0,0-4.71,5.61,2.19,2.19,0,0,1,.52,2.33,2.26,2.26,0,0,1-1.94,1.48,3.67,3.67,0,0,0-2.28,6.26,2.71,2.71,0,0,1,.25,3.54A3.67,3.67,0,0,0,109.64,94a1.74,1.74,0,0,1,1.34.64,1.77,1.77,0,0,1,.37,1.45,3.66,3.66,0,0,0,3.89,4.33Zm-.22-33h0Z" style="fill:#8247E5"></path><path d="M117.54,75.39a5.48,5.48,0,0,1-4.83-2.9,1.07,1.07,0,0,1,.43-1.45,1.08,1.08,0,0,1,1.45.44,3.34,3.34,0,0,0,6.09-.42,1.08,1.08,0,0,1,1.38-.64,1.06,1.06,0,0,1,.63,1.37A5.51,5.51,0,0,1,117.54,75.39Z" style="fill:#8247E5"></path><path d="M117.68,97.82a5.46,5.46,0,0,1-2.65-.69,1.07,1.07,0,1,1,1-1.87A3.35,3.35,0,0,0,121,91.59a1.07,1.07,0,0,1,2.09-.47,5.5,5.5,0,0,1-5.36,6.7Z" style="fill:#8247E5"></path><path d="M110.52,91.12a5.49,5.49,0,0,1-5.42-4.69,1.07,1.07,0,1,1,2.11-.31,3.35,3.35,0,0,0,5.88,1.67,1.07,1.07,0,0,1,1.51-.13,1.06,1.06,0,0,1,.13,1.5A5.52,5.52,0,0,1,110.52,91.12Z" style="fill:#8247E5"></path><path d="M120,86.6h-.15a1.08,1.08,0,0,1-.91-1.22,3.35,3.35,0,0,0-5.14-3.29,1.07,1.07,0,1,1-1.17-1.79A5.48,5.48,0,0,1,121,85.68,1.07,1.07,0,0,1,120,86.6Z" style="fill:#8247E5"></path><path d="M131,106.85a6.08,6.08,0,0,1-6.06-6.07V67.63A6.07,6.07,0,0,1,131,61.56a6,6,0,0,1,5.82,4.74l0,.17A6.07,6.07,0,0,1,144,76a6.06,6.06,0,0,1,3.48,10.3.32.32,0,0,0,0,.44,6.06,6.06,0,0,1-4.14,9.59,6,6,0,0,1-.76,3.4,6.13,6.13,0,0,1-5.75,3.07c-.06,0-.12,0-.14.1A6.09,6.09,0,0,1,131,106.85ZM131,64a3.68,3.68,0,0,0-3.67,3.68v33.15a3.67,3.67,0,0,0,7.12,1.28A2.52,2.52,0,0,1,137,100.4a3.68,3.68,0,0,0,3.9-4.33A1.76,1.76,0,0,1,142.6,94a3.67,3.67,0,0,0,2.94-5.84,2.71,2.71,0,0,1,.25-3.54,3.67,3.67,0,0,0-2.28-6.26,2.24,2.24,0,0,1-1.94-1.48,2.19,2.19,0,0,1,.52-2.33,3.68,3.68,0,0,0-4.71-5.61,1.73,1.73,0,0,1-1.63.2,1.71,1.71,0,0,1-1.05-1.25h0l-.23-1.09A3.56,3.56,0,0,0,131,64Zm12.26,31.68Z" style="fill:#8247E5"></path><path d="M134.7,75.39a5.52,5.52,0,0,1-5.15-3.6,1.07,1.07,0,0,1,2-.73,3.34,3.34,0,0,0,6.09.42,1.07,1.07,0,0,1,1.89,1A5.48,5.48,0,0,1,134.7,75.39Z" style="fill:#8247E5"></path><path d="M134.56,97.82a5.5,5.5,0,0,1-5.35-6.7,1.07,1.07,0,0,1,2.09.47,3.35,3.35,0,0,0,4.88,3.67,1.07,1.07,0,1,1,1,1.87A5.5,5.5,0,0,1,134.56,97.82Z" style="fill:#8247E5"></path><path d="M141.73,91.12a5.52,5.52,0,0,1-4.21-2,1.06,1.06,0,0,1,.13-1.5,1.08,1.08,0,0,1,1.51.13A3.35,3.35,0,0,0,145,86.12a1.07,1.07,0,0,1,2.12.31,5.48,5.48,0,0,1-3.57,4.36A5.39,5.39,0,0,1,141.73,91.12Z" style="fill:#8247E5"></path><path d="M132.27,86.6a1.08,1.08,0,0,1-1.06-.92,5.49,5.49,0,0,1,8.44-5.39,1.07,1.07,0,1,1-1.17,1.79,3.36,3.36,0,0,0-3.83.12,3.32,3.32,0,0,0-1.32,3.17,1.07,1.07,0,0,1-.9,1.22Z" style="fill:#8247E5"></path></g><path d="M133.23,110.75H119a1.07,1.07,0,0,1,0-2.14h14.21a1.07,1.07,0,1,1,0,2.14Z" style="fill:#8247E5"></path><path d="M126.12,121.83a8.18,8.18,0,0,1-8.17-8.17,1.07,1.07,0,0,1,1.07-1.07h14.21a1.07,1.07,0,0,1,1.07,1.07A8.18,8.18,0,0,1,126.12,121.83Zm-5.94-7.1a6,6,0,0,0,11.88,0Z" style="fill:#8247E5"></path></g></g></g></svg>
