<svg xmlns="http://www.w3.org/2000/svg" xmlns:svgjs="http://svgjs.dev/svgjs" xmlns:xlink="http://www.w3.org/1999/xlink" width="1000" height="292" version="1.1" viewBox="0 0 1000 292"><g transform="matrix(1,0,0,1,-0.6060606060606233,-0.43040983603137306)"><svg xmlns="http://www.w3.org/2000/svg" xmlns:xlink="http://www.w3.org/1999/xlink" width="1000" height="292" data-background-color="#ffffff" preserveAspectRatio="xMidYMid meet" viewBox="0 0 396 116"><g id="tight-bounds" transform="matrix(1,0,0,1,0.2400000000000091,0.1709847293823259)"><svg width="395.52" height="115.658" viewBox="0 0 395.52 115.658"><g><svg width="395.52" height="115.658" viewBox="0 0 601.909 176.01"><g><rect id="rb-0" width="4.872" height="117.927" x="188.762" y="29.042" fill="#6433c4" fill-opacity="1" stroke="transparent" stroke-width="0" class="rect-rb-0" data-fill-palette-color="primary" data-palette-color="#6433c4" opacity="1" rx="1%"/></g><g transform="matrix(1,0,0,1,206.38876230423466,29.335045009784736)"><svg width="395.52" height="117.34" viewBox="0 0 395.52 117.34"><g><svg width="395.52" height="117.34" viewBox="0 0 395.52 117.34"><g><svg width="395.52" height="117.34" viewBox="0 0 395.52 117.34"><g transform="matrix(1,0,0,1,0,0)"><svg width="395.52" height="117.34" data-palette-color="#6433c4" viewBox="2.75 -34.25 255.5 72.5"><svg/><svg/><g id="text-0" class="undefined-text-0" data-fill-palette-color="primary"><path fill="#6433c4" fill-rule="nonzero" stroke="none" stroke-dashoffset="0" stroke-linecap="butt" stroke-linejoin="miter" stroke-miterlimit="10" stroke-width="1" d="M15-28.7v21.2c0 2.6-0.483 4.5-1.45 5.7-0.967 1.2-2.433 1.8-4.4 1.8v0c-1.933 0-3.357-0.517-4.27-1.55-0.92-1.033-1.38-2.883-1.38-5.55v0-21.15c0-4 1.883-6 5.65-6v0c1.933 0 3.393 0.367 4.38 1.1 0.98 0.733 1.47 2.217 1.47 4.45zM33.15-27.25v20.45c0.867 0 1.623-0.093 2.27-0.28 0.653-0.18 1.27-0.513 1.85-1 0.587-0.48 1.063-1.12 1.43-1.92 0.367-0.8 0.66-1.827 0.88-3.08 0.213-1.247 0.32-2.72 0.32-4.42v0c0-1.9-0.167-3.51-0.5-4.83-0.333-1.313-0.817-2.313-1.45-3-0.633-0.68-1.323-1.163-2.07-1.45-0.753-0.28-1.663-0.437-2.73-0.47zM27.3-34.2h7.35c5.2 0 9.373 1.5 12.52 4.5 3.153 3 4.73 7.133 4.73 12.4v0c0 1.7-0.16 3.35-0.48 4.95-0.313 1.6-0.837 3.157-1.57 4.67-0.733 1.52-1.65 2.837-2.75 3.95-1.1 1.12-2.5 2.02-4.2 2.7-1.7 0.687-3.617 1.03-5.75 1.03v0h-9.85c-2.033 0-3.49-0.517-4.37-1.55-0.887-1.033-1.33-2.9-1.33-5.6v0-21.1c0-3.967 1.9-5.95 5.7-5.95zM69.15-20.3h8.6c1.767 0 3.01 0.283 3.73 0.85 0.713 0.567 1.07 1.533 1.07 2.9v0c0 1.133-0.423 1.94-1.27 2.42-0.853 0.487-2.18 0.73-3.98 0.73v0h-8.1v5.3l10.85 0.05c1.867 0 3.21 0.273 4.03 0.82 0.813 0.553 1.22 1.53 1.22 2.93v0c0 1.6-0.473 2.717-1.42 3.35-0.953 0.633-2.397 0.95-4.33 0.95v0h-16.2c-1.967 0-3.407-0.527-4.32-1.58-0.92-1.047-1.38-2.903-1.38-5.57v0-21.1c0-4 1.9-6 5.7-6v0h16.2c1.933 0 3.377 0.3 4.33 0.9 0.947 0.6 1.42 1.683 1.42 3.25v0c0 1.467-0.407 2.49-1.22 3.07-0.82 0.587-2.163 0.88-4.03 0.88v0h-10.9zM105.7-26.1v0c-1.433 0-2.49 0.417-3.17 1.25-0.687 0.833-1.03 2.317-1.03 4.45v0 5.9h8.3v-6c0-1.4-0.167-2.527-0.5-3.38-0.333-0.847-0.79-1.43-1.37-1.75-0.587-0.313-1.33-0.47-2.23-0.47zM109.8-4.95v-2.65h-8.3v2.65c0 1.7-0.45 2.95-1.35 3.75-0.9 0.8-2.45 1.2-4.65 1.2v0c-0.933 0-1.7-0.133-2.3-0.4-0.6-0.267-1.123-0.717-1.57-1.35-0.453-0.633-0.787-1.56-1-2.78-0.22-1.213-0.387-2.68-0.5-4.4-0.12-1.713-0.18-3.887-0.18-6.52v0c0-2.3 0.243-4.41 0.73-6.33 0.48-1.913 1.13-3.537 1.95-4.87 0.813-1.333 1.737-2.51 2.77-3.53 1.033-1.013 2.16-1.803 3.38-2.37 1.213-0.567 2.397-0.993 3.55-1.28 1.147-0.28 2.303-0.42 3.47-0.42v0c1.4 0 2.783 0.19 4.15 0.57 1.367 0.387 2.75 1.047 4.15 1.98 1.4 0.933 2.627 2.09 3.68 3.47 1.047 1.387 1.903 3.18 2.57 5.38 0.667 2.2 1 4.667 1 7.4v0c0 4.4-0.157 7.657-0.47 9.77-0.32 2.12-0.853 3.597-1.6 4.43-0.753 0.833-1.913 1.25-3.48 1.25v0c-2.2 0-3.75-0.4-4.65-1.2-0.9-0.8-1.35-2.05-1.35-3.75z" data-fill-palette-color="primary" font-family="none" font-size="none" font-weight="none" opacity="1" text-anchor="none" style="mix-blend-mode:normal"/><path fill="#6433c4" fill-rule="nonzero" stroke="none" stroke-dashoffset="0" stroke-linecap="butt" stroke-linejoin="miter" stroke-miterlimit="10" stroke-width="1" d="M5.65-11.05l6-5.95-6.85-6.65c-1.367-1.467-2.05-2.867-2.05-4.2v0c0-1.633 0.7-3.083 2.1-4.35v0c1.533-1.367 2.9-2.05 4.1-2.05v0c1.467 0 2.75 0.65 3.85 1.95v0l6.4 8.2 5.3-7.1c1.633-2 3.467-3 5.5-3v0c1.4 0 2.7 0.583 3.9 1.75v0c1.367 1.4 2.05 2.733 2.05 4v0c0 1.467-0.983 3.217-2.95 5.25v0l-5.9 5.6 6.75 7.05c1.4 1.567 2.1 2.95 2.1 4.15v0c0 1.667-0.7 3.117-2.1 4.35v0c-1.533 1.4-2.9 2.1-4.1 2.1v0c-1.5 0-2.783-0.65-3.85-1.95v0l-6.45-8.4-5.3 7.25c-1.567 2.033-3.383 3.05-5.45 3.05v0c-1.367 0-2.667-0.617-3.9-1.85v0c-1.367-1.367-2.05-2.683-2.05-3.95v0c0-1.367 0.967-3.117 2.9-5.25zM60.05-24.85v0c0-0.7-0.293-1.3-0.88-1.8-0.58-0.5-1.27-0.75-2.07-0.75v0c-1.6 0-2.917 0.907-3.95 2.72-1.033 1.82-1.55 3.88-1.55 6.18v0c0 1.767 0.333 3.357 1 4.77 0.667 1.42 1.633 2.547 2.9 3.38 1.267 0.833 2.733 1.25 4.4 1.25v0c1.233 0 2.417-0.243 3.55-0.73 1.133-0.48 2.05-1.013 2.75-1.6 0.7-0.58 1.427-1.113 2.18-1.6 0.747-0.48 1.403-0.72 1.97-0.72v0c0.733 0 1.367 0.29 1.9 0.87 0.533 0.587 0.8 1.197 0.8 1.83v0c0 0.7-0.21 1.517-0.63 2.45-0.413 0.933-1.07 1.923-1.97 2.97-0.9 1.053-1.95 2.02-3.15 2.9-1.2 0.887-2.69 1.62-4.47 2.2-1.787 0.587-3.663 0.88-5.63 0.88v0c-2.6 0-5.007-0.393-7.22-1.18-2.22-0.78-4.147-1.893-5.78-3.34-1.633-1.453-2.917-3.28-3.85-5.48-0.933-2.2-1.4-4.667-1.4-7.4v0c0-5.4 1.617-9.667 4.85-12.8 3.233-3.133 7.467-4.7 12.7-4.7v0c2.667 0 5.133 0.45 7.4 1.35 2.267 0.9 4.067 2.15 5.4 3.75 1.333 1.6 2 3.35 2 5.25v0c0 2.2-0.733 4.19-2.2 5.97-1.467 1.787-3.367 2.68-5.7 2.68v0c-1.333 0-2.533-0.367-3.6-1.1-1.067-0.733-1.6-1.783-1.6-3.15v0c0-0.633 0.31-1.517 0.93-2.65 0.613-1.133 0.92-1.933 0.92-2.4zM111.7-28.7v21.2c0 2.7-0.483 4.623-1.45 5.77-0.967 1.153-2.433 1.73-4.4 1.73v0c-1.933 0-3.35-0.527-4.25-1.58-0.9-1.047-1.35-2.903-1.35-5.57v0l-0.05-5.65h-10.2v5.3c0 2.733-0.467 4.667-1.4 5.8-0.933 1.133-2.417 1.7-4.45 1.7v0c-1.933 0-3.35-0.527-4.25-1.58-0.9-1.047-1.35-2.903-1.35-5.57v0l-0.15-21.1c0-2.067 0.527-3.583 1.58-4.55 1.047-0.967 2.437-1.45 4.17-1.45v0c2 0 3.477 0.367 4.43 1.1 0.947 0.733 1.42 2.217 1.42 4.45v0 8.4h10.15v-7.95c0-1.4 0.26-2.56 0.78-3.48 0.513-0.913 1.18-1.563 2-1.95 0.813-0.38 1.787-0.57 2.92-0.57v0c1.933 0 3.393 0.367 4.38 1.1 0.98 0.733 1.47 2.217 1.47 4.45zM132.45-26.1v0c-1.433 0-2.49 0.417-3.17 1.25-0.687 0.833-1.03 2.317-1.03 4.45v0 5.9h8.3v-6c0-1.4-0.167-2.527-0.5-3.38-0.333-0.847-0.79-1.43-1.37-1.75-0.587-0.313-1.33-0.47-2.23-0.47zM136.55-4.95v-2.65h-8.3v2.65c0 1.7-0.45 2.95-1.35 3.75-0.9 0.8-2.45 1.2-4.65 1.2v0c-0.933 0-1.7-0.133-2.3-0.4-0.6-0.267-1.123-0.717-1.57-1.35-0.453-0.633-0.787-1.56-1-2.78-0.22-1.213-0.387-2.68-0.5-4.4-0.12-1.713-0.18-3.887-0.18-6.52v0c0-2.3 0.243-4.41 0.73-6.33 0.48-1.913 1.13-3.537 1.95-4.87 0.813-1.333 1.737-2.51 2.77-3.53 1.033-1.013 2.16-1.803 3.38-2.37 1.213-0.567 2.397-0.993 3.55-1.28 1.147-0.28 2.303-0.42 3.47-0.42v0c1.4 0 2.783 0.19 4.15 0.57 1.367 0.387 2.75 1.047 4.15 1.98 1.4 0.933 2.627 2.09 3.68 3.47 1.047 1.387 1.903 3.18 2.57 5.38 0.667 2.2 1 4.667 1 7.4v0c0 4.4-0.157 7.657-0.47 9.77-0.32 2.12-0.853 3.597-1.6 4.43-0.753 0.833-1.913 1.25-3.48 1.25v0c-2.2 0-3.75-0.4-4.65-1.2-0.9-0.8-1.35-2.05-1.35-3.75zM185.45-29.95v25.2c0 1.467-0.433 2.623-1.3 3.47-0.867 0.853-2.133 1.28-3.8 1.28v0c-0.433 0-0.867-0.05-1.3-0.15-0.433-0.1-0.89-0.283-1.37-0.55-0.487-0.267-0.913-0.517-1.28-0.75-0.367-0.233-0.823-0.593-1.37-1.08-0.553-0.48-0.987-0.863-1.3-1.15-0.32-0.28-0.813-0.737-1.48-1.37-0.667-0.633-1.15-1.1-1.45-1.4v0l-9.15-8.65v10.85c0 1.633-0.31 2.75-0.93 3.35-0.613 0.6-1.587 0.9-2.92 0.9v0c-1.467 0-2.55-0.333-3.25-1-0.7-0.667-1.05-1.783-1.05-3.35v0-24.15c0-1.9 0.483-3.333 1.45-4.3 0.967-0.967 2.35-1.45 4.15-1.45v0c1.233 0 2.227 0.19 2.98 0.57 0.747 0.387 1.637 1.08 2.67 2.08v0l12.65 12.6v-10.9c0-1.433 0.36-2.51 1.08-3.23 0.713-0.713 1.687-1.07 2.92-1.07v0c1.433 0 2.467 0.333 3.1 1 0.633 0.667 0.95 1.75 0.95 3.25zM210.65-25.85v0c0-1.033-0.683-1.55-2.05-1.55v0c-1.4 0-2.6 0.783-3.6 2.35-1 1.567-1.5 4.183-1.5 7.85v0c0 3.4 0.577 5.873 1.73 7.42 1.147 1.553 2.503 2.33 4.07 2.33v0c0.5 0 0.96-0.1 1.38-0.3 0.413-0.2 0.753-0.5 1.02-0.9 0.267-0.4 0.4-0.883 0.4-1.45v0c-0.8 0-1.49-0.15-2.07-0.45-0.587-0.3-1.013-0.677-1.28-1.13-0.267-0.447-0.4-0.937-0.4-1.47v0c0-1.2 0.317-2.1 0.95-2.7 0.633-0.6 1.717-0.9 3.25-0.9v0h6.05c1.933 0 3.433 0.417 4.5 1.25 1.067 0.833 1.6 2.3 1.6 4.4v0c0 3.067-1.467 5.74-4.4 8.02-2.933 2.287-6.417 3.43-10.45 3.43v0c-3.7 0-6.99-0.667-9.87-2-2.887-1.333-5.17-3.327-6.85-5.98-1.687-2.647-2.53-5.787-2.53-9.42v0c0-5.4 1.633-9.667 4.9-12.8 3.267-3.133 7.6-4.7 13-4.7v0c2.133 0 4.05 0.157 5.75 0.47 1.7 0.32 3.11 0.747 4.23 1.28 1.113 0.533 2.047 1.173 2.8 1.92 0.747 0.753 1.28 1.547 1.6 2.38 0.313 0.833 0.47 1.7 0.47 2.6v0c0 0.633-0.1 1.24-0.3 1.82-0.2 0.587-0.557 1.17-1.07 1.75-0.52 0.587-1.313 1.063-2.38 1.43-1.067 0.367-2.35 0.55-3.85 0.55v0c-2.2 0-3.6-0.327-4.2-0.98-0.6-0.647-0.9-2.153-0.9-4.52zM242.1-20.3h8.6c1.767 0 3.01 0.283 3.73 0.85 0.713 0.567 1.07 1.533 1.07 2.9v0c0 1.133-0.423 1.94-1.27 2.42-0.853 0.487-2.18 0.73-3.98 0.73v0h-8.1v5.3l10.85 0.05c1.867 0 3.207 0.273 4.02 0.82 0.82 0.553 1.23 1.53 1.23 2.93v0c0 1.6-0.477 2.717-1.43 3.35-0.947 0.633-2.387 0.95-4.32 0.95v0h-16.2c-1.967 0-3.41-0.527-4.33-1.58-0.913-1.047-1.37-2.903-1.37-5.57v0-21.1c0-4 1.9-6 5.7-6v0h16.2c1.933 0 3.373 0.3 4.32 0.9 0.953 0.6 1.43 1.683 1.43 3.25v0c0 1.467-0.41 2.49-1.23 3.07-0.813 0.587-2.153 0.88-4.02 0.88v0h-10.9z" data-fill-palette-color="primary" font-family="none" font-size="none" font-weight="none" opacity="1" text-anchor="none" transform="translate(0,37.9)" style="mix-blend-mode:normal"/></g></svg></g></svg></g></svg></g></svg></g><g><svg width="176.008" height="176.01" viewBox="0 0 176.008 176.01"><g><svg xmlns="http://www.w3.org/2000/svg" xmlns:xlink="http://www.w3.org/1999/xlink" id="icon-0" width="176.008" height="176.01" x="0" y="0" class="icon-icon-0" data-fill-palette-color="accent" enable-background="new 0 0 90 90" version="1.1" viewBox="5.413 5.196 79.769 79.77" xml:space="preserve"><path fill="#0b0014" d="M54.624 83.27c-10.792 1.801-22.246-1.411-30.727-8.272-8.062-6.522-13.088-16.744-12.728-27.17 0.349-10.096 5.499-20.182 14.078-25.707 8.769-5.647 20.783-5.62 29.498 0.129 8.154 5.379 12.661 15.857 9.907 25.391-1.424 4.931-4.572 9.475-9.052 12.082-4.663 2.714-10.561 3.268-15.615 1.341-4.544-1.733-8.418-5.448-9.851-10.154-1.47-4.826-0.243-10.416 3.327-14.027 3.452-3.492 8.998-4.743 13.484-2.567 4.259 2.065 6.884 7.148 5.307 11.755-0.85 2.483-2.859 4.611-5.423 5.317-2.69 0.741-5.774-0.221-7.439-2.493-1.629-2.222-1.495-5.503 0.597-7.389 1.054-0.95 2.599-1.429 3.984-1.015 0.41 0.122 2.233 0.566 2.058 1.209 0.087-0.652-1.341-0.82-1.755-0.934-1.29-0.356-2.733 0.004-3.719 0.904-1.739 1.586-1.995 4.459-0.597 6.34 1.417 1.906 4.102 2.721 6.348 1.971 2.287-0.765 3.875-3.013 4.245-5.344 0.746-4.703-3.812-8.759-8.323-8.569-4.774 0.201-8.548 4.373-9.111 8.971-1.056 8.621 8.8 14.488 16.466 12.536 8.546-2.177 12.86-12.372 10.766-20.465-2.34-9.045-11.891-14.664-20.877-14.543-9.785 0.131-18.28 7.23-21.955 16.011-4.038 9.649-2.194 21.17 4.201 29.364 6.485 8.309 16.93 13.113 27.352 13.664 5.766 0.305 11.749-0.537 17.004-3.006 4.955-2.328 8.907-6.258 11.976-10.734 6.303-9.194 8.662-20.938 6.135-31.824C79.845 17.355 61.052 3.689 41.936 5.329 23.164 6.939 7.154 22.991 5.551 41.756c-0.918 10.74 2.777 21.76 9.928 29.817 7.078 7.976 17.424 12.875 28.071 13.353 6.118 0.275 12.303-0.876 17.903-3.359-2.472 0.844-4.993 1.695-7.622 1.838 0.506-0.028 0.982-0.246 1.492-0.242-1.79-0.014-3.465 0.776-5.242 0.87 1.034-0.055 2.103-0.271 3.095-0.566 0.337-0.101 1.458-0.578 1.755-0.242-0.207-0.235-1.358 0.182-1.613 0.243-0.926 0.221-1.953 0.452-2.902 0.51 0.426-0.026 4.536-0.711 4.53-0.755 0.008 0.065-4.022 0.607-4.613 0.769 0.714-0.196 1.505-0.245 2.235-0.367 0.292-0.048 2.164-0.591 2.374-0.402C54.91 83.194 54.661 83.264 54.624 83.27 43.928 85.055 57.114 82.88 54.624 83.27z" data-fill-palette-color="accent"/></svg></g></svg></g></svg></g></svg><rect width="395.52" height="115.658" fill="none" stroke="none" visibility="hidden"/></g></svg></g></svg>